<svg width="68" height="68" viewBox="0 0 68 68" fill="none" xmlns="http://www.w3.org/2000/svg">
<path d="M25.5001 46.9825C25.5001 50.1502 30.6426 53.8335 34.0001 53.8335C37.3576 53.8335 42.5001 50.1502 42.5001 46.9825C42.5007 46.2909 42.2484 45.623 41.7906 45.1046C41.3329 44.5862 40.7013 44.2531 40.015 44.1681C39.3287 44.0831 38.635 44.252 38.0646 44.6431C37.4942 45.0342 37.0865 45.6203 36.9184 46.2912C36.1251 47.166 35.1128 47.8135 33.9859 48.1668C32.8705 47.8063 31.8691 47.1595 31.0817 46.2912C30.9136 45.6203 30.5059 45.0342 29.9356 44.6431C29.3652 44.252 28.6715 44.0831 27.9851 44.1681C27.2988 44.2531 26.6673 44.5862 26.2095 45.1046C25.7518 45.623 25.4995 46.2909 25.5001 46.9825ZM2.8334 34.0002C2.8334 40.1643 4.66129 46.1901 8.08593 51.3154C11.5106 56.4408 16.3781 60.4355 22.0731 62.7944C27.7681 65.1533 34.0346 65.7705 40.0804 64.568C46.1261 63.3654 51.6795 60.3971 56.0382 56.0383C60.397 51.6796 63.3653 46.1262 64.5679 40.0805C65.7704 34.0347 65.1532 27.7682 62.7943 22.0732C60.4354 16.3782 56.4407 11.5107 51.3153 8.08603C46.19 4.66139 40.1643 2.8335 34.0001 2.8335C25.7371 2.84324 17.8154 6.13 11.9727 11.9728C6.1299 17.8155 2.84315 25.7372 2.8334 34.0002ZM19.8334 19.8335C21.5145 19.8335 23.1579 20.332 24.5557 21.266C25.9536 22.2 27.043 23.5275 27.6864 25.0807C28.3297 26.6339 28.4981 28.3429 28.1701 29.9918C27.8421 31.6406 27.0326 33.1552 25.8438 34.3439C24.6551 35.5326 23.1405 36.3422 21.4917 36.6702C19.8428 36.9981 18.1338 36.8298 16.5806 36.1865C15.0274 35.5431 13.6999 34.4537 12.7659 33.0558C11.8319 31.658 11.3334 30.0146 11.3334 28.3335C11.3334 26.0792 12.2289 23.9171 13.823 22.3231C15.417 20.729 17.5791 19.8335 19.8334 19.8335ZM34.0001 8.50016C39.9424 8.49496 45.698 10.5756 50.2634 14.3793C49.571 14.2551 48.87 14.1841 48.1667 14.1668C44.9022 14.1709 41.7388 15.3004 39.2099 17.3649C36.6809 19.4293 34.941 22.3025 34.2834 25.5002H33.7167C33.0591 22.3025 31.3192 19.4293 28.7903 17.3649C26.2613 15.3004 23.098 14.1709 19.8334 14.1668C19.1301 14.1841 18.4292 14.2551 17.7367 14.3793C22.3021 10.5756 28.0578 8.49496 34.0001 8.50016ZM56.6667 28.3335C56.6667 30.0146 56.1682 31.658 55.2342 33.0558C54.3002 34.4537 52.9727 35.5431 51.4195 36.1865C49.8664 36.8298 48.1573 36.9981 46.5085 36.6702C44.8596 36.3422 43.3451 35.5326 42.1563 34.3439C40.9676 33.1552 40.158 31.6406 39.8301 29.9918C39.5021 28.3429 39.6704 26.6339 40.3138 25.0807C40.9571 23.5275 42.0466 22.2 43.4444 21.266C44.8422 20.332 46.4856 19.8335 48.1667 19.8335C50.4211 19.8335 52.5831 20.729 54.1771 22.3231C55.7712 23.9171 56.6667 26.0792 56.6667 28.3335ZM8.6899 36.9752C10.3382 39.1269 12.5716 40.7582 15.1228 41.6737C17.6741 42.5893 20.4351 42.7503 23.0754 42.1375C25.7158 41.5247 28.1237 40.1641 30.0109 38.2185C31.8981 36.2728 33.1847 33.8246 33.7167 31.1668H34.2834C34.8159 33.824 36.1026 36.2714 37.9896 38.2165C39.8766 40.1615 42.284 41.5218 44.9238 42.1345C47.5636 42.7472 50.324 42.5865 52.8748 41.6715C55.4257 40.7565 57.6589 39.1261 59.3074 36.9752C58.5812 43.1782 55.6024 48.8987 50.9365 53.0502C46.2707 57.2017 40.2427 59.4953 33.9972 59.4953C27.7518 59.4953 21.7238 57.2017 17.0579 53.0502C12.3921 48.8987 9.41322 43.1782 8.68707 36.9752H8.6899Z" fill="#3369FF"/>
</svg>
