<svg width="68" height="68" viewBox="0 0 68 68" fill="none" xmlns="http://www.w3.org/2000/svg">
<path d="M51.3145 6.49607L26.588 31.2254C26.276 31.5344 26.0419 31.9131 25.9052 32.3304L22.814 41.6039C22.6722 42.0296 22.6336 42.4829 22.7012 42.9265C22.7689 43.3701 22.941 43.7912 23.2032 44.1553C23.4655 44.5194 23.8105 44.816 24.2098 45.0206C24.6091 45.2253 25.0513 45.3322 25.5 45.3326C25.8045 45.3325 26.1069 45.2828 26.3954 45.1852L35.6689 42.0941C36.0861 41.9573 36.4649 41.7233 36.7739 41.4112L61.5032 16.6847C62.0344 16.1534 62.3328 15.4329 62.3328 14.6816C62.3328 13.9303 62.0344 13.2097 61.5032 12.6784L55.3209 6.49607C54.7895 5.9649 54.069 5.6665 53.3177 5.6665C52.5664 5.6665 51.8459 5.9649 51.3145 6.49607ZM33.2407 36.9317L29.9795 38.0197L31.0675 34.7586L47.1382 18.6992L49.3114 20.8724L33.2407 36.9317ZM55.4937 14.6816L53.3177 16.8547L51.1445 14.6816L53.3177 12.5056L55.4937 14.6816ZM8.50002 14.1659H31.1667C31.9181 14.1659 32.6388 14.4644 33.1702 14.9958C33.7015 15.5271 34 16.2478 34 16.9992C34 17.7507 33.7015 18.4713 33.1702 19.0027C32.6388 19.5341 31.9181 19.8326 31.1667 19.8326H11.3334V56.6659H48.1667V36.8326C48.1667 36.0811 48.4652 35.3605 48.9966 34.8291C49.5279 34.2977 50.2486 33.9992 51 33.9992C51.7515 33.9992 52.4721 34.2977 53.0035 34.8291C53.5348 35.3605 53.8334 36.0811 53.8334 36.8326V59.4992C53.8334 60.2507 53.5348 60.9714 53.0035 61.5027C52.4721 62.0341 51.7515 62.3326 51 62.3326H8.50002C7.74857 62.3326 7.0279 62.0341 6.49655 61.5027C5.9652 60.9714 5.66669 60.2507 5.66669 59.4992V16.9992C5.66669 16.2478 5.9652 15.5271 6.49655 14.9958C7.0279 14.4644 7.74857 14.1659 8.50002 14.1659Z" fill="black"/>
</svg>
