<svg width="24" height="24" viewBox="0 0 24 24" fill="none" xmlns="http://www.w3.org/2000/svg">
<path d="M17.093 1.29279L5.893 12.4928C5.78276 12.6023 5.69986 12.7363 5.651 12.8838L4.051 17.6838C4.00093 17.8341 3.9873 17.9942 4.01123 18.1508C4.03517 18.3075 4.09598 18.4562 4.18866 18.5847C4.28134 18.7132 4.40323 18.8179 4.54429 18.89C4.68536 18.9622 4.84155 18.9998 5 18.9998C5.10737 18.9996 5.21403 18.9824 5.316 18.9488L10.116 17.3488C10.2633 17.2994 10.3971 17.2166 10.507 17.1068L21.707 5.90679C21.8945 5.71926 21.9998 5.46495 21.9998 5.19979C21.9998 4.93462 21.8945 4.68031 21.707 4.49279L18.507 1.29279C18.3195 1.10532 18.0652 1 17.8 1C17.5348 1 17.2805 1.10532 17.093 1.29279ZM9.26 15.5258L6.581 16.4188L7.474 13.7398L17.8 3.41379L19.586 5.19979L9.26 15.5258ZM3 20.9998H20C20.2652 20.9998 20.5196 21.1051 20.7071 21.2927C20.8946 21.4802 21 21.7346 21 21.9998C21 22.265 20.8946 22.5194 20.7071 22.7069C20.5196 22.8944 20.2652 22.9998 20 22.9998H3C2.73478 22.9998 2.48043 22.8944 2.29289 22.7069C2.10536 22.5194 2 22.265 2 21.9998C2 21.7346 2.10536 21.4802 2.29289 21.2927C2.48043 21.1051 2.73478 20.9998 3 20.9998Z" fill="black"/>
</svg>
