<svg width="23" height="27" viewBox="0 0 23 27" fill="none" xmlns="http://www.w3.org/2000/svg">
<path d="M22.5625 3.625C22.5625 3.30453 22.4352 2.99719 22.2086 2.77058C21.982 2.54397 21.6746 2.41667 21.3542 2.41667H17.7292V1.20833C17.7292 0.887863 17.6019 0.580519 17.3753 0.353913C17.1486 0.127306 16.8413 0 16.5208 0H6.85417C6.5337 0 6.22635 0.127306 5.99975 0.353913C5.77314 0.580519 5.64583 0.887863 5.64583 1.20833V2.41667H2.02083C1.70036 2.41667 1.39302 2.54397 1.16641 2.77058C0.939806 2.99719 0.8125 3.30453 0.8125 3.625V25.375C0.8125 25.6955 0.939806 26.0028 1.16641 26.2294C1.39302 26.456 1.70036 26.5833 2.02083 26.5833H21.3542C21.6746 26.5833 21.982 26.456 22.2086 26.2294C22.4352 26.0028 22.5625 25.6955 22.5625 25.375V3.625ZM8.0625 2.41667H15.3125V4.83333H8.0625V2.41667ZM20.1458 24.1667H3.22917V4.83333H5.64583V6.04167C5.64583 6.36214 5.77314 6.66948 5.99975 6.89609C6.22635 7.12269 6.5337 7.25 6.85417 7.25H16.5208C16.8413 7.25 17.1486 7.12269 17.3753 6.89609C17.6019 6.66948 17.7292 6.36214 17.7292 6.04167V4.83333H20.1458V24.1667ZM12.8958 20.5417C12.8958 20.8621 12.7685 21.1695 12.5419 21.3961C12.3153 21.6227 12.008 21.75 11.6875 21.75H6.85417C6.5337 21.75 6.22635 21.6227 5.99975 21.3961C5.77314 21.1695 5.64583 20.8621 5.64583 20.5417C5.64583 20.2212 5.77314 19.9139 5.99975 19.6872C6.22635 19.4606 6.5337 19.3333 6.85417 19.3333H11.6875C12.008 19.3333 12.3153 19.4606 12.5419 19.6872C12.7685 19.9139 12.8958 20.2212 12.8958 20.5417ZM17.7292 15.7083C17.7292 16.0288 17.6019 16.3361 17.3753 16.5628C17.1486 16.7894 16.8413 16.9167 16.5208 16.9167H6.85417C6.5337 16.9167 6.22635 16.7894 5.99975 16.5628C5.77314 16.3361 5.64583 16.0288 5.64583 15.7083C5.64583 15.3879 5.77314 15.0805 5.99975 14.8539C6.22635 14.6273 6.5337 14.5 6.85417 14.5H16.5208C16.8413 14.5 17.1486 14.6273 17.3753 14.8539C17.6019 15.0805 17.7292 15.3879 17.7292 15.7083ZM17.7292 10.875C17.7292 11.1955 17.6019 11.5028 17.3753 11.7294C17.1486 11.956 16.8413 12.0833 16.5208 12.0833H6.85417C6.5337 12.0833 6.22635 11.956 5.99975 11.7294C5.77314 11.5028 5.64583 11.1955 5.64583 10.875C5.64583 10.5545 5.77314 10.2472 5.99975 10.0206C6.22635 9.79397 6.5337 9.66667 6.85417 9.66667H16.5208C16.8413 9.66667 17.1486 9.79397 17.3753 10.0206C17.6019 10.2472 17.7292 10.5545 17.7292 10.875Z" fill="#BFB2FF"/>
</svg>
