<svg width="23" height="23" viewBox="0 0 23 23" fill="none" xmlns="http://www.w3.org/2000/svg">
<path d="M3.82136 7.14522L11.686 11.6947L19.5507 7.14522M11.686 20.7665V11.6857M19.7939 15.2892V8.08214C19.7936 7.76618 19.7102 7.45585 19.5521 7.1823C19.394 6.90876 19.1667 6.6816 18.8931 6.52362L12.5869 2.9201C12.313 2.76196 12.0023 2.67871 11.686 2.67871C11.3698 2.67871 11.0591 2.76196 10.7852 2.9201L4.479 6.52362C4.20537 6.6816 3.9781 6.90876 3.81998 7.1823C3.66186 7.45585 3.57845 7.76618 3.57812 8.08214V15.2892C3.57845 15.6051 3.66186 15.9154 3.81998 16.189C3.9781 16.4625 4.20537 16.6897 4.479 16.8477L10.7852 20.4512C11.0591 20.6093 11.3698 20.6926 11.686 20.6926C12.0023 20.6926 12.313 20.6093 12.5869 20.4512L18.8931 16.8477C19.1667 16.6897 19.394 16.4625 19.5521 16.189C19.7102 15.9154 19.7936 15.6051 19.7939 15.2892Z" stroke="#9E9E9E" stroke-width="2.10938" stroke-linecap="round" stroke-linejoin="round"/>
</svg>
