<svg width="23" height="23" viewBox="0 0 23 23" fill="none" xmlns="http://www.w3.org/2000/svg">
<path d="M13.0479 2.45703H5.84082C5.36296 2.45703 4.90468 2.64686 4.56679 2.98475C4.22889 3.32265 4.03906 3.78093 4.03906 4.25879V18.6729C4.03906 19.1507 4.22889 19.609 4.56679 19.9469C4.90468 20.2848 5.36296 20.4746 5.84082 20.4746H16.6514C17.1292 20.4746 17.5875 20.2848 17.9254 19.9469C18.2633 19.609 18.4531 19.1507 18.4531 18.6729V7.8623M13.0479 2.45703L18.4531 7.8623M13.0479 2.45703L13.0479 7.8623H18.4531M14.8496 12.3667H7.64258M14.8496 15.9702H7.64258M9.44434 8.76318H7.64258" stroke="#9E9E9E" stroke-width="2.10938" stroke-linecap="round" stroke-linejoin="round"/>
</svg>
