<svg width="24" height="24" viewBox="0 0 24 24" fill="none" xmlns="http://www.w3.org/2000/svg">
<path d="M15.7158 4.35389C14.6905 3.32879 13.4067 2.60041 12.0008 2.24602C10.5948 1.89164 9.11918 1.92448 7.73041 2.34106C6.34163 2.75764 5.09154 3.54242 4.11278 4.61212C3.13402 5.68183 2.46311 6.99655 2.17124 8.41677C1.87937 9.837 1.97743 11.3097 2.45501 12.6787C2.93259 14.0477 3.77187 15.2619 4.8838 16.1924C5.99574 17.1229 7.33884 17.735 8.77058 17.9638C10.2023 18.1926 11.6693 18.0295 13.0158 17.4919L16.5958 21.0729C17.189 21.6666 17.9937 22.0003 18.8329 22.0007C19.6721 22.0011 20.4771 21.668 21.0708 21.0749C21.6645 20.4817 21.9983 19.677 21.9986 18.8378C21.999 17.9986 21.666 17.1936 21.0728 16.5999L17.4928 13.0199C18.0757 11.5598 18.218 9.96087 17.9022 8.42076C17.5864 6.88065 16.8263 5.4668 15.7158 4.35389ZM10.0338 16.0689C8.63811 16.0693 7.2854 15.5858 6.20618 14.7008C5.12697 13.8157 4.38801 12.5838 4.11523 11.215C3.84245 9.84618 4.05271 8.42513 4.71019 7.19395C5.36767 5.96278 6.43169 4.99766 7.72097 4.46303C9.01024 3.92841 10.445 3.85734 11.7808 4.26195C13.1166 4.66656 14.2708 5.52181 15.0467 6.68199C15.8226 7.84217 16.1723 9.23548 16.0361 10.6246C15.8999 12.0136 15.2863 13.3125 14.2998 14.2999C13.7409 14.8619 13.0761 15.3076 12.3439 15.6113C11.6116 15.9149 10.8265 16.0704 10.0338 16.0689ZM19.6588 18.0119C19.8679 18.2322 19.9827 18.5254 19.9788 18.8291C19.9748 19.1328 19.8524 19.423 19.6377 19.6377C19.4229 19.8525 19.1328 19.9749 18.8291 19.9788C18.5254 19.9828 18.2321 19.868 18.0118 19.6589L14.8258 16.4729C15.1401 16.242 15.4375 15.989 15.7158 15.7159C15.989 15.4376 16.2419 15.1402 16.4728 14.8259L19.6588 18.0119ZM11.0348 13.9999C11.0348 14.2651 10.9295 14.5195 10.7419 14.707C10.5544 14.8945 10.3001 14.9999 10.0348 14.9999C8.71843 14.9983 7.45638 14.4747 6.52545 13.544C5.59452 12.6132 5.07069 11.3513 5.06884 10.0349C5.06802 9.76785 5.17258 9.51127 5.35981 9.32086C5.54704 9.13045 5.80182 9.02158 6.06884 9.01789C6.19923 9.01577 6.32874 9.03959 6.44985 9.08797C6.57095 9.13634 6.68124 9.20831 6.77428 9.29968C6.86733 9.39105 6.94129 9.50001 6.99185 9.62021C7.04242 9.74042 7.06859 9.86948 7.06884 9.99989V10.0349C7.06963 10.8212 7.38241 11.575 7.9385 12.1309C8.49459 12.6868 9.24854 12.9994 10.0348 12.9999C10.3001 12.9999 10.5544 13.1052 10.7419 13.2928C10.9295 13.4803 11.0348 13.7347 11.0348 13.9999Z" fill="#9E9E9E"/>
</svg>
