<svg width="24" height="24" viewBox="0 0 24 24" fill="none" xmlns="http://www.w3.org/2000/svg">
<path d="M6.091 10.945C5.8781 12.1587 6.04291 13.4085 6.56315 14.5255C7.08339 15.6425 7.93398 16.5729 9 17.191V20C9 20.7956 9.31607 21.5587 9.87868 22.1213C10.4413 22.6839 11.2044 23 12 23C12.7956 23 13.5587 22.6839 14.1213 22.1213C14.6839 21.5587 15 20.7956 15 20V17.191C15.8731 16.6865 16.605 15.9701 17.1281 15.108C17.6511 14.2458 17.9484 13.2658 17.9925 12.2583C18.0366 11.2509 17.8261 10.2486 17.3804 9.34406C16.9348 8.4395 16.2683 7.66185 15.4426 7.08298C14.6169 6.5041 13.6587 6.14266 12.6564 6.03205C11.6541 5.92145 10.64 6.06525 9.708 6.45016C8.77596 6.83507 7.95597 7.44868 7.32378 8.2343C6.6916 9.01992 6.26761 9.9522 6.091 10.945ZM12.008 8C12.9248 7.9988 13.8134 8.31704 14.521 8.9C15.0531 9.33286 15.4649 9.89528 15.717 10.5332C15.969 11.1712 16.0527 11.8632 15.9601 12.5429C15.8675 13.2225 15.6017 13.8669 15.1883 14.4142C14.7748 14.9615 14.2275 15.3932 13.599 15.668C13.4207 15.7458 13.269 15.8739 13.1625 16.0366C13.0559 16.1993 12.9991 16.3895 12.999 16.584V20C12.999 20.2652 12.8936 20.5196 12.7061 20.7071C12.5186 20.8946 12.2642 21 11.999 21C11.7338 21 11.4794 20.8946 11.2919 20.7071C11.1044 20.5196 10.999 20.2652 10.999 20V16.578C10.9989 16.3835 10.9421 16.1933 10.8355 16.0306C10.729 15.8679 10.5773 15.7398 10.399 15.662C9.62526 15.325 8.97794 14.7519 8.54964 14.0247C8.12134 13.2976 7.93401 12.4535 8.01446 11.6134C8.09491 10.7733 8.43901 9.98022 8.99753 9.34754C9.55605 8.71485 10.3004 8.27503 11.124 8.091C11.4147 8.0303 11.711 7.99981 12.008 8ZM12 4C11.7348 4 11.4804 3.89464 11.2929 3.70711C11.1054 3.51957 11 3.26522 11 3V2C11 1.73478 11.1054 1.48043 11.2929 1.29289C11.4804 1.10536 11.7348 1 12 1C12.2652 1 12.5196 1.10536 12.7071 1.29289C12.8946 1.48043 13 1.73478 13 2V3C13 3.26522 12.8946 3.51957 12.7071 3.70711C12.5196 3.89464 12.2652 4 12 4ZM19.778 5.636L19.071 6.343C18.8824 6.52516 18.6298 6.62595 18.3676 6.62367C18.1054 6.6214 17.8546 6.51623 17.6692 6.33082C17.4838 6.14541 17.3786 5.8946 17.3763 5.6324C17.374 5.3702 17.4748 5.1176 17.657 4.929L18.364 4.222C18.5526 4.03984 18.8052 3.93905 19.0674 3.94133C19.3296 3.9436 19.5804 4.04877 19.7658 4.23418C19.9512 4.41959 20.0564 4.6704 20.0587 4.9326C20.061 5.1948 19.9602 5.4474 19.778 5.636ZM4.929 20.071C4.73125 20.071 4.53795 20.0123 4.37354 19.9024C4.20913 19.7925 4.08099 19.6364 4.00532 19.4537C3.92965 19.271 3.90985 19.0699 3.94842 18.876C3.98698 18.682 4.08219 18.5039 4.222 18.364L4.928 17.657C5.02084 17.5641 5.13108 17.4904 5.25241 17.4401C5.37374 17.3898 5.5038 17.3638 5.63515 17.3638C5.7665 17.3638 5.89657 17.3896 6.01793 17.4398C6.1393 17.49 6.24959 17.5637 6.3425 17.6565C6.43541 17.7493 6.50912 17.8596 6.55943 17.9809C6.60974 18.1022 6.63566 18.2323 6.6357 18.3636C6.63575 18.495 6.60992 18.6251 6.5597 18.7464C6.50948 18.8678 6.43584 18.9781 6.343 19.071L5.637 19.778C5.54404 19.871 5.43366 19.9447 5.31218 19.995C5.19069 20.0453 5.06048 20.0711 4.929 20.071ZM23 12C23 12.2652 22.8946 12.5196 22.7071 12.7071C22.5196 12.8946 22.2652 13 22 13H21C20.7348 13 20.4804 12.8946 20.2929 12.7071C20.1054 12.5196 20 12.2652 20 12C20 11.7348 20.1054 11.4804 20.2929 11.2929C20.4804 11.1054 20.7348 11 21 11H22C22.2652 11 22.5196 11.1054 22.7071 11.2929C22.8946 11.4804 23 11.7348 23 12ZM4 12C4 12.2652 3.89464 12.5196 3.70711 12.7071C3.51957 12.8946 3.26522 13 3 13H2C1.73478 13 1.48043 12.8946 1.29289 12.7071C1.10536 12.5196 1 12.2652 1 12C1 11.7348 1.10536 11.4804 1.29289 11.2929C1.48043 11.1054 1.73478 11 2 11H3C3.26522 11 3.51957 11.1054 3.70711 11.2929C3.89464 11.4804 4 11.7348 4 12ZM19.778 18.364C19.8735 18.4562 19.9497 18.5666 20.0021 18.6886C20.0545 18.8106 20.0821 18.9418 20.0833 19.0746C20.0844 19.2074 20.0591 19.3391 20.0088 19.462C19.9585 19.5849 19.8843 19.6965 19.7904 19.7904C19.6965 19.8843 19.5849 19.9585 19.462 20.0088C19.3391 20.0591 19.2074 20.0844 19.0746 20.0833C18.9418 20.0821 18.8106 20.0545 18.6886 20.0021C18.5666 19.9497 18.4562 19.8735 18.364 19.778L17.657 19.071C17.4748 18.8824 17.374 18.6298 17.3763 18.3676C17.3786 18.1054 17.4838 17.8546 17.6692 17.6692C17.8546 17.4838 18.1054 17.3786 18.3676 17.3763C18.6298 17.374 18.8824 17.4748 19.071 17.657L19.778 18.364ZM6.343 4.929C6.53051 5.11664 6.6358 5.37108 6.6357 5.63635C6.63561 5.90162 6.53014 6.15599 6.3425 6.3435C6.15486 6.53101 5.90042 6.6363 5.63515 6.6362C5.36988 6.63611 5.11551 6.53064 4.928 6.343L4.222 5.636C4.03449 5.44836 3.9292 5.19392 3.9293 4.92865C3.92939 4.66338 4.03486 4.40901 4.2225 4.2215C4.41014 4.03399 4.66458 3.9287 4.92985 3.9288C5.19512 3.92889 5.44949 4.03436 5.637 4.222L6.343 4.929Z" fill="#9E9E9E"/>
</svg>
