<svg width="764" height="740" viewBox="0 0 764 740" fill="none" xmlns="http://www.w3.org/2000/svg">
<path d="M89.7179 149.673C116.416 194.593 173.573 209.873 173.573 209.873C173.573 209.873 187.468 152.364 160.769 107.444C134.071 62.5232 76.9144 47.2437 76.9144 47.2437C76.9144 47.2437 63.0195 104.753 89.7179 149.673Z" fill="#C3BEFF"/>
<path d="M173.631 209.837L76.9727 47.2085" stroke="white" stroke-width="0.474317" stroke-miterlimit="10"/>
<path d="M111.331 105.017L81.0625 99.4766" stroke="white" stroke-width="0.474317" stroke-miterlimit="10"/>
<path d="M127.625 131.711L131.032 81.3165" stroke="white" stroke-width="0.474317" stroke-miterlimit="10"/>
<path d="M136.517 147.391L91.5078 138.62" stroke="white" stroke-width="0.474317" stroke-miterlimit="10"/>
<path d="M149.232 168.065L162.91 124.84" stroke="white" stroke-width="0.474317" stroke-miterlimit="10"/>
<path d="M159.941 186.085L126.455 181.602" stroke="white" stroke-width="0.474317" stroke-miterlimit="10"/>
<path d="M99.7644 222.705C128.643 231.929 159.314 216.531 159.314 216.531C159.314 216.531 143.241 186.208 114.422 176.949C85.6019 167.69 54.8721 183.123 54.8721 183.123C54.8721 183.123 70.8851 213.615 99.7644 222.705Z" fill="#C3BEFF"/>
<path d="M159.361 216.61L54.8604 183.237" stroke="white" stroke-width="0.474317" stroke-miterlimit="10"/>
<path d="M92.013 195.102L76.7481 204.335" stroke="white" stroke-width="0.474317" stroke-miterlimit="10"/>
<path d="M109.356 200.419L91.4463 177.25" stroke="white" stroke-width="0.474317" stroke-miterlimit="10"/>
<path d="M119.237 203.787L96.3467 217.312" stroke="white" stroke-width="0.474317" stroke-miterlimit="10"/>
<path d="M132.72 207.872L122.028 183.859" stroke="white" stroke-width="0.474317" stroke-miterlimit="10"/>
<path d="M144.293 211.57L128.041 222.512" stroke="white" stroke-width="0.474317" stroke-miterlimit="10"/>
<path d="M173.813 140.849C166.752 170.312 184.399 199.779 184.399 199.779C184.399 199.779 213.448 181.473 220.477 152.002C227.506 122.531 209.926 93.1312 209.926 93.1312C209.926 93.1312 180.842 111.379 173.813 140.849Z" fill="#C3BEFF"/>
<path d="M184.4 199.779L209.891 93.0716" stroke="white" stroke-width="0.474317" stroke-miterlimit="10"/>
<path d="M200.831 130.987L190.488 116.462" stroke="white" stroke-width="0.474317" stroke-miterlimit="10"/>
<path d="M196.815 148.677L218.597 129.108" stroke="white" stroke-width="0.474317" stroke-miterlimit="10"/>
<path d="M194.174 158.794L179.007 136.96" stroke="white" stroke-width="0.474317" stroke-miterlimit="10"/>
<path d="M191.128 172.543L214.27 160.071" stroke="white" stroke-width="0.474317" stroke-miterlimit="10"/>
<path d="M188.303 184.372L176.188 168.977" stroke="white" stroke-width="0.474317" stroke-miterlimit="10"/>
<path d="M690.765 322.007C675.145 371.873 623.053 399.922 623.053 399.922C623.053 399.922 596.27 347.168 611.89 297.301C627.509 247.435 679.602 219.386 679.602 219.386C679.602 219.386 706.384 272.14 690.765 322.007Z" fill="#C3BEFF"/>
<path d="M622.986 399.901L679.535 219.365" stroke="white" stroke-width="0.474317" stroke-miterlimit="10"/>
<path d="M659.435 283.539L687.609 271.167" stroke="white" stroke-width="0.474317" stroke-miterlimit="10"/>
<path d="M649.739 313.27L634.802 265.02" stroke="white" stroke-width="0.474317" stroke-miterlimit="10"/>
<path d="M644.7 330.579L686.473 311.665" stroke="white" stroke-width="0.474317" stroke-miterlimit="10"/>
<path d="M637.096 353.628L613.818 314.723" stroke="white" stroke-width="0.474317" stroke-miterlimit="10"/>
<path d="M630.83 373.631L662.38 361.547" stroke="white" stroke-width="0.474317" stroke-miterlimit="10"/>
<path d="M697.83 395.387C671.857 411.022 638.462 403.112 638.462 403.112C638.462 403.112 647.109 369.9 673.017 354.244C698.924 338.589 732.385 346.519 732.385 346.519C732.385 346.519 723.835 379.882 697.83 395.387Z" fill="#C3BEFF"/>
<path d="M638.435 403.2L732.423 346.628" stroke="white" stroke-width="0.474317" stroke-miterlimit="10"/>
<path d="M699.008 366.74L715.991 372.204" stroke="white" stroke-width="0.474317" stroke-miterlimit="10"/>
<path d="M683.359 375.914L695.443 349.24" stroke="white" stroke-width="0.474317" stroke-miterlimit="10"/>
<path d="M674.521 381.47L699.913 389.351" stroke="white" stroke-width="0.474317" stroke-miterlimit="10"/>
<path d="M662.342 388.553L667.209 362.722" stroke="white" stroke-width="0.474317" stroke-miterlimit="10"/>
<path d="M651.934 394.821L670.271 401.72" stroke="white" stroke-width="0.474317" stroke-miterlimit="10"/>
<path d="M606.903 332.814C620.568 359.854 610.191 392.597 610.191 392.597C610.191 392.597 577.704 381.483 564.068 354.427C550.432 327.372 560.759 294.71 560.759 294.71C560.759 294.71 593.267 305.759 606.903 332.814Z" fill="#C3BEFF"/>
<path d="M610.19 392.596L560.778 294.644" stroke="white" stroke-width="0.474317" stroke-miterlimit="10"/>
<path d="M578.338 329.449L585.052 312.93" stroke="white" stroke-width="0.474317" stroke-miterlimit="10"/>
<path d="M586.325 345.736L560.618 331.717" stroke="white" stroke-width="0.474317" stroke-miterlimit="10"/>
<path d="M591.227 354.971L600.95 330.228" stroke="white" stroke-width="0.474317" stroke-miterlimit="10"/>
<path d="M597.362 367.647L571.968 360.848" stroke="white" stroke-width="0.474317" stroke-miterlimit="10"/>
<path d="M602.839 378.505L611.077 360.731" stroke="white" stroke-width="0.474317" stroke-miterlimit="10"/>
<path opacity="0.1" d="M404.796 739.378C556.774 739.378 679.976 727.638 679.976 713.156C679.976 698.674 556.774 686.934 404.796 686.934C252.819 686.934 129.617 698.674 129.617 713.156C129.617 727.638 252.819 739.378 404.796 739.378Z" fill="#4A3AFF"/>
<rect x="146.308" y="66.6079" width="497.419" height="426.468" rx="14.9027" fill="white"/>
<rect x="169.084" y="123.428" width="210.243" height="210.243" rx="14.4846" fill="#EFF0F7"/>
<path d="M146.308 81.0925C146.308 73.0929 152.793 66.6079 160.792 66.6079H629.242C637.242 66.6079 643.727 73.0929 643.727 81.0925V106.495H146.308V81.0925Z" fill="#4A3AFF"/>
<circle cx="169.113" cy="84.1277" r="6.15263" fill="white"/>
<circle cx="187.571" cy="84.1277" r="6.15263" fill="white"/>
<circle cx="206.029" cy="84.1277" r="6.15263" fill="white"/>
<rect x="181.686" y="135.998" width="185.042" height="185.073" rx="14.9027" fill="white"/>
<rect opacity="0.2" x="199.227" y="160.317" width="45.884" height="8.25423" rx="4.12711" fill="#4A3AFF"/>
<line x1="201.829" y1="205.038" x2="339.205" y2="205.038" stroke="#EFF0F7" stroke-width="0.614775"/>
<line x1="201.829" y1="225.627" x2="339.205" y2="225.627" stroke="#EFF0F7" stroke-width="0.614775"/>
<line x1="201.829" y1="246.215" x2="339.205" y2="246.215" stroke="#EFF0F7" stroke-width="0.614775"/>
<line x1="201.829" y1="266.803" x2="339.205" y2="266.803" stroke="#EFF0F7" stroke-width="0.614775"/>
<line x1="201.829" y1="289.143" x2="339.205" y2="289.143" stroke="#EFF0F7" stroke-width="0.614775"/>
<circle opacity="0.2" cx="423.286" cy="145.473" r="21.9003" fill="#4A3AFF"/>
<rect opacity="0.3" x="523.343" y="125.324" width="8.76012" height="71.1464" rx="4.38006" transform="rotate(90 523.343 125.324)" fill="#7A6EFF"/>
<rect x="620.948" y="141.093" width="8.76012" height="168.752" rx="4.38006" transform="rotate(90 620.948 141.093)" fill="#EFF0F7"/>
<rect x="620.948" y="156.861" width="8.76012" height="168.752" rx="4.38006" transform="rotate(90 620.948 156.861)" fill="#EFF0F7"/>
<circle opacity="0.2" cx="423.29" cy="217.305" r="21.9003" fill="#4A3AFF"/>
<rect opacity="0.3" x="523.345" y="197.156" width="8.76012" height="71.1464" rx="4.38006" transform="rotate(90 523.345 197.156)" fill="#7A6EFF"/>
<rect x="620.95" y="212.924" width="8.76012" height="168.752" rx="4.38006" transform="rotate(90 620.95 212.924)" fill="#EFF0F7"/>
<rect x="620.95" y="228.693" width="8.76012" height="168.752" rx="4.38006" transform="rotate(90 620.95 228.693)" fill="#EFF0F7"/>
<circle opacity="0.2" cx="423.29" cy="289.138" r="21.9003" fill="#4A3AFF"/>
<rect opacity="0.3" x="523.345" y="268.99" width="8.76012" height="71.1464" rx="4.38006" transform="rotate(90 523.345 268.99)" fill="#7A6EFF"/>
<rect x="620.95" y="284.758" width="8.76012" height="168.752" rx="4.38006" transform="rotate(90 620.95 284.758)" fill="#EFF0F7"/>
<rect x="620.95" y="300.527" width="8.76012" height="168.752" rx="4.38006" transform="rotate(90 620.95 300.527)" fill="#EFF0F7"/>
<rect x="169.084" y="356.446" width="451.866" height="113.852" rx="10.9612" fill="#EFF0F7"/>
<rect x="182.209" y="369.562" width="425.616" height="87.6193" rx="11.2545" fill="white"/>
<path d="M333.046 439.671L333.252 440.135L333.74 439.999L365.55 431.146L365.612 431.128L365.669 431.098L397.286 414.196L428.991 422.524L429.211 422.581L429.412 422.476L461.608 405.642L492.863 405.575L523.486 422.721L523.489 422.723L523.786 422.891L524.065 423.049L524.348 422.9L554.615 407.053L555.257 406.717L554.795 406.158L554.206 405.445L553.903 405.078L553.481 405.299L524.106 420.677L493.785 403.703L493.785 403.703L493.78 403.7L493.641 403.624L493.509 403.551L493.357 403.551L461.141 403.619L460.997 403.62L460.87 403.686L428.909 420.396L397.201 412.059L396.978 412L396.775 412.109L364.744 429.251L333.072 438.07L332.417 438.252L332.693 438.873L333.046 439.671Z" fill="#962DFF" stroke="#962DFF" stroke-width="1.17442"/>
<path d="M523.198 430.876C523.457 431.016 523.781 430.941 523.953 430.701L555.045 387.394C555.148 387.25 555.181 387.068 555.135 386.898C555.089 386.728 554.968 386.587 554.807 386.515L553.875 386.099C553.621 385.985 553.322 386.066 553.159 386.293L522.947 428.375L492.834 412.161C492.748 412.114 492.653 412.09 492.556 412.09H460.494L428.406 395.299C428.323 395.256 428.231 395.233 428.138 395.232L396.125 395.003C395.99 395.002 395.858 395.048 395.753 395.132L363.987 420.621H333.005C332.681 420.621 332.418 420.884 332.418 421.208V422.057C332.418 422.382 332.681 422.644 333.005 422.644H364.643C364.777 422.644 364.906 422.599 365.01 422.515L396.764 397.036L427.655 397.255L459.756 414.047C459.84 414.091 459.934 414.114 460.029 414.114H492.086L523.198 430.876Z" fill="#4A3AFF" stroke="#4A3AFF" stroke-width="1.17442" stroke-linejoin="round"/>
<rect opacity="0.2" x="205.826" y="388.181" width="45.884" height="8.25423" rx="4.12711" fill="#4A3AFF"/>
<rect x="205.826" y="406.947" width="12.3048" height="12.3048" rx="6.15242" fill="#4A3AFF"/>
<rect x="297.413" y="408.72" width="8.76012" height="74.3201" rx="4.38006" transform="rotate(90 297.413 408.72)" fill="#EFF0F7"/>
<rect x="205.826" y="426.26" width="12.3048" height="12.3048" rx="6.15242" fill="#962DFF"/>
<rect x="297.412" y="428.033" width="8.76012" height="74.3201" rx="4.38006" transform="rotate(90 297.412 428.033)" fill="#EFF0F7"/>
<path d="M624.599 704.953C627.178 701.588 630.814 696.699 634.867 690.681C636.071 688.937 637.323 687.07 638.527 685.154C635.284 682.86 632.403 680.095 629.979 676.949C629.046 675.487 628.441 673.842 628.204 672.125C627.966 670.408 628.102 668.66 628.603 667C629.17 665.612 630.263 664.505 631.644 663.92C633.025 663.335 634.581 663.321 635.972 663.88L636.513 664.126C640.689 666.583 641.426 675.18 640.566 679.405C640.566 679.676 639.485 682.795 638.92 684.318L641.156 680.781C642.261 679.012 643.366 677.121 644.447 675.303L646.019 672.38C646.584 671.397 647.002 670.39 647.493 669.358C648.206 667.884 648.844 666.288 649.508 664.74C646.139 663.041 643.049 660.837 640.345 658.206C639.197 656.9 638.346 655.361 637.849 653.694C637.353 652.027 637.224 650.273 637.471 648.552C637.837 647.074 638.774 645.801 640.078 645.014C641.381 644.226 642.944 643.988 644.423 644.351L644.84 644.474C649.36 646.218 651.424 654.669 651.178 658.992C651.178 658.992 651.031 660.024 650.859 661.105C651.448 659.557 652.038 658.009 652.578 656.413C654.126 651.893 655.551 647.225 657.024 642.558C657.319 641.6 657.639 640.642 657.933 639.659C654.476 637.912 651.296 635.66 648.5 632.978C647.353 631.676 646.502 630.141 646.006 628.479C645.509 626.816 645.38 625.066 645.626 623.348C645.802 622.618 646.12 621.93 646.563 621.323C647.005 620.717 647.563 620.204 648.205 619.813C648.846 619.423 649.558 619.163 650.3 619.049C651.043 618.935 651.8 618.968 652.529 619.148L652.996 619.271C657.516 620.99 659.579 629.465 659.334 633.764C659.334 633.911 659.162 634.992 658.941 636.22C659.776 633.764 660.636 631.307 661.569 628.851C663.134 624.638 664.981 620.534 667.096 616.568C663.491 614.797 660.177 612.486 657.27 609.715C656.123 608.413 655.272 606.878 654.775 605.216C654.279 603.553 654.15 601.803 654.396 600.085C654.572 599.355 654.89 598.667 655.332 598.061C655.775 597.454 656.333 596.941 656.974 596.55C657.616 596.16 658.328 595.9 659.07 595.786C659.812 595.672 660.57 595.705 661.299 595.885H661.766C666.285 597.629 668.349 606.079 668.103 610.378C668.103 610.697 667.44 614.579 667.145 615.979V615.831C669.312 611.973 671.828 608.322 674.662 604.925C677.156 601.862 679.83 598.95 682.67 596.204C685.299 593.748 687.829 591.439 690.04 589.522C691.268 588.491 692.422 587.557 693.503 586.722C693.503 586.722 696.156 581.514 696.377 581.22C698.834 577.658 705.638 572.253 710.257 573.629C710.984 573.867 711.657 574.248 712.235 574.749C712.813 575.251 713.286 575.863 713.624 576.549C713.963 577.236 714.161 577.983 714.207 578.747C714.253 579.511 714.146 580.276 713.892 580.998L713.671 581.539C712.82 583.051 711.65 584.36 710.241 585.374C708.833 586.388 707.22 587.083 705.516 587.41C701.64 587.837 697.722 587.671 693.896 586.919C692.766 587.803 691.612 588.786 690.335 589.891C688.099 591.856 685.618 594.116 682.965 596.72C682.277 597.432 681.565 598.194 680.877 598.955C682.037 598.074 683.242 597.254 684.488 596.499C688.296 594.485 696.771 592.814 700.308 596.18C700.84 596.707 701.262 597.335 701.55 598.026C701.838 598.718 701.986 599.459 701.986 600.208C701.986 600.957 701.838 601.699 701.55 602.39C701.262 603.082 700.84 603.709 700.308 604.237C700.164 604.389 700.008 604.528 699.841 604.654C698.387 605.603 696.744 606.225 695.026 606.475C693.308 606.725 691.556 606.599 689.892 606.104C686.241 604.681 682.828 602.709 679.772 600.257C678.249 601.928 676.75 603.672 675.276 605.588C672.549 609.005 670.14 612.664 668.079 616.519C668.024 616.769 667.915 617.004 667.759 617.207C668.374 616.593 672.034 613.449 672.304 613.252C675.866 610.796 684.193 608.216 688.001 611.189C689.169 612.144 689.91 613.524 690.062 615.025C690.214 616.526 689.764 618.027 688.811 619.197L688.369 619.688C687.01 620.79 685.426 621.581 683.729 622.005C682.031 622.429 680.261 622.477 678.543 622.145C674.651 621.107 670.951 619.448 667.587 617.232C665.644 621.123 663.953 625.135 662.527 629.244C661.446 632.29 660.488 635.41 659.53 638.554C660.365 637.768 663.755 634.845 664.025 634.673C667.587 632.216 675.89 629.637 679.722 632.585C680.89 633.553 681.627 634.942 681.774 636.451C681.922 637.961 681.467 639.467 680.509 640.642L680.091 641.084C678.734 642.19 677.15 642.984 675.452 643.409C673.754 643.833 671.983 643.878 670.265 643.541C666.407 642.507 662.729 640.892 659.358 638.751L658.105 643.025C656.754 647.717 655.403 652.409 653.954 657.002C653.438 658.599 652.873 660.147 652.333 661.719C653.61 660.564 655.968 658.55 656.189 658.378C659.751 655.921 668.054 653.465 671.886 656.314C673.055 657.294 673.789 658.697 673.927 660.216C674.065 661.734 673.596 663.246 672.623 664.421L672.255 664.814C670.898 665.92 669.314 666.714 667.616 667.138C665.917 667.563 664.146 667.608 662.429 667.27C658.701 666.288 655.147 664.739 651.89 662.677C650.957 665.133 649.974 667.811 648.894 670.267C648.402 671.299 647.96 672.404 647.42 673.387L645.897 676.359C644.791 678.349 643.759 680.191 642.679 682.009C642.138 682.943 641.598 683.803 641.082 684.711C642.187 683.36 644.005 681.248 644.177 681.076C647.346 678.128 655.158 674.296 659.383 676.654C660.026 677.036 660.588 677.542 661.037 678.141C661.485 678.74 661.811 679.422 661.996 680.148C662.181 680.873 662.221 681.628 662.114 682.369C662.007 683.11 661.755 683.822 661.373 684.466C661.373 684.638 661.151 684.81 661.029 684.982C659.872 686.278 658.446 687.306 656.851 687.994C655.255 688.681 653.529 689.011 651.792 688.961C647.845 688.51 643.987 687.476 640.345 685.891C639.018 688.077 637.717 690.189 636.464 692.13C632.46 698.32 628.922 703.307 626.392 706.869C623.862 710.431 622.314 712.273 622.314 712.273C622.184 712.468 622.013 712.633 621.814 712.757C621.615 712.88 621.391 712.96 621.159 712.99C620.926 713.02 620.69 713.001 620.465 712.932C620.241 712.863 620.034 712.748 619.858 712.593C619.674 712.453 619.52 712.278 619.405 712.078C619.29 711.878 619.217 711.656 619.189 711.427C619.161 711.198 619.18 710.965 619.245 710.743C619.309 710.522 619.417 710.315 619.563 710.136V710.136C621.481 708.658 623.177 706.913 624.599 704.953Z" fill="#7A6EFF"/>
<path d="M680.286 599.177C680.286 599.177 674.047 593.405 672.597 589.916C671.84 588.356 671.429 586.651 671.391 584.917C671.352 583.183 671.689 581.461 672.376 579.869C673.103 578.537 674.329 577.548 675.785 577.12C677.24 576.692 678.806 576.859 680.139 577.585L680.655 577.904C684.561 580.754 684.315 589.474 682.939 593.552C682.816 593.92 680.335 599.226 680.286 599.177Z" fill="#7A6EFF"/>
<path d="M617.868 707.262C616.714 704.364 615.019 700.237 612.759 695.398C612.12 693.997 611.408 692.523 610.671 691C608.003 692.186 605.17 692.956 602.269 693.285C600.993 693.322 599.724 693.081 598.55 692.581C597.375 692.081 596.323 691.332 595.465 690.386C594.795 689.495 594.504 688.376 594.656 687.272C594.808 686.167 595.39 685.168 596.276 684.491L596.669 684.245C599.764 682.525 605.512 685.326 607.846 687.463C607.993 687.61 609.565 689.428 610.302 690.386C609.835 689.477 609.393 688.568 608.902 687.635C608.214 686.284 607.453 684.884 606.691 683.508C606.298 682.796 605.881 682.108 605.463 681.396C605.045 680.683 604.579 680.02 604.112 679.332C603.645 678.644 602.687 677.318 601.95 676.311C599.609 677.785 597.058 678.894 594.384 679.602C593.127 679.835 591.833 679.791 590.594 679.473C589.355 679.155 588.201 678.57 587.211 677.76C586.821 677.37 586.511 676.906 586.299 676.396C586.088 675.886 585.979 675.34 585.979 674.788C585.979 674.235 586.088 673.689 586.299 673.179C586.511 672.669 586.821 672.205 587.211 671.815L587.432 671.496C590.233 669.31 596.349 671.201 598.953 672.994L600.157 674.001C599.42 673.052 598.658 672.094 597.872 671.127C595.588 668.45 593.205 665.772 590.822 663.095L589.348 661.424C586.94 662.949 584.314 664.1 581.561 664.839C580.308 665.071 579.018 665.027 577.783 664.709C576.548 664.391 575.398 663.806 574.413 662.996C574.022 662.606 573.712 662.143 573.501 661.633C573.289 661.123 573.181 660.576 573.181 660.024C573.181 659.472 573.289 658.925 573.501 658.415C573.712 657.905 574.022 657.442 574.413 657.052L574.732 656.757C577.533 654.571 583.649 656.462 586.278 658.231L587.653 659.41C586.376 657.936 585.197 656.462 583.944 654.939C581.859 652.36 579.963 649.635 578.27 646.784C575.792 648.385 573.083 649.595 570.237 650.37C568.983 650.603 567.694 650.558 566.459 650.24C565.224 649.922 564.074 649.337 563.088 648.528C562.305 647.737 561.866 646.668 561.866 645.555C561.866 644.442 562.305 643.374 563.088 642.583L563.408 642.288C566.184 640.102 572.3 641.993 574.929 643.762C575.125 643.909 577.385 645.801 578.098 646.489C576.497 643.665 575.149 640.706 574.069 637.645C573.091 634.911 572.27 632.122 571.613 629.293C570.974 626.665 570.556 624.233 570.212 622.071C570.016 620.892 569.893 619.836 569.746 618.829C569.746 618.829 567.486 615.193 567.289 614.948C565.963 612.049 565.127 605.711 567.756 603.328C568.592 602.604 569.681 602.239 570.784 602.313C571.888 602.387 572.918 602.893 573.651 603.721L573.946 604.114C574.577 605.224 574.959 606.459 575.065 607.731C575.172 609.004 574.999 610.285 574.56 611.484C573.367 614.089 571.776 616.492 569.844 618.608C569.991 619.664 570.163 620.769 570.384 621.973C570.777 624.135 571.244 626.542 571.956 629.146C572.128 629.834 572.349 630.571 572.546 631.283C572.546 630.006 572.349 628.237 572.374 628.065C572.546 624.921 574.831 618.902 578.147 617.994C579.222 617.734 580.355 617.912 581.299 618.488C582.243 619.063 582.921 619.99 583.183 621.064C583.194 621.228 583.194 621.392 583.183 621.555C583.229 622.831 582.996 624.101 582.499 625.276C582.003 626.452 581.255 627.504 580.309 628.36C578.081 630.121 575.595 631.53 572.939 632.536C573.406 634.108 573.946 635.729 574.585 637.449C575.712 640.46 577.11 643.362 578.761 646.12L579.08 646.587C578.908 645.973 578.319 642.485 578.294 642.214C578.122 639.07 579.621 632.831 582.937 631.553C583.97 631.173 585.111 631.217 586.111 631.678C587.11 632.139 587.886 632.977 588.268 634.01C588.331 634.16 588.381 634.317 588.415 634.477C588.61 635.737 588.524 637.025 588.163 638.248C587.802 639.471 587.175 640.599 586.327 641.551C584.198 643.582 581.781 645.288 579.154 646.612C580.864 649.321 582.752 651.914 584.804 654.374C586.302 656.192 587.924 657.985 589.545 659.778C589.348 658.943 588.783 655.701 588.783 655.455C588.587 652.311 590.11 646.071 593.426 644.794C594.459 644.413 595.6 644.458 596.6 644.918C597.6 645.379 598.375 646.218 598.757 647.25C598.82 647.401 598.87 647.557 598.904 647.717C599.099 648.977 599.013 650.265 598.652 651.488C598.291 652.711 597.664 653.839 596.816 654.792C594.701 656.828 592.291 658.534 589.668 659.852L591.903 662.309C594.36 664.937 596.816 667.565 599.125 670.219C599.936 671.152 600.697 672.085 601.582 673.019C601.336 671.791 600.968 669.531 600.943 669.334C600.771 666.165 602.27 659.95 605.586 658.673C606.618 658.292 607.76 658.337 608.76 658.798C609.759 659.258 610.535 660.097 610.916 661.129C610.984 661.278 611.034 661.435 611.064 661.596C611.259 662.856 611.173 664.144 610.812 665.367C610.451 666.59 609.824 667.719 608.976 668.671C606.953 670.656 604.632 672.314 602.098 673.584C603.375 675.156 604.554 676.728 605.733 678.349C606.2 679.062 606.74 679.75 607.158 680.462C607.576 681.174 608.018 681.862 608.435 682.55C609.271 683.999 610.057 685.35 610.892 686.702C611.26 687.414 611.604 688.077 611.973 688.74C611.555 687.537 610.892 685.596 610.867 685.4C610.204 682.304 610.744 675.942 613.84 674.173C614.349 673.955 614.897 673.84 615.451 673.834C616.005 673.829 616.555 673.933 617.068 674.141C617.582 674.348 618.05 674.656 618.444 675.045C618.839 675.434 619.152 675.898 619.367 676.409C619.754 677.635 619.865 678.932 619.691 680.207C619.517 681.481 619.062 682.701 618.36 683.778C616.587 686.088 614.485 688.124 612.12 689.821C612.98 691.467 613.815 693.088 614.577 694.734C617.033 699.647 618.777 703.7 620.005 706.624C621.234 709.547 621.848 711.242 621.848 711.242C621.951 711.555 621.93 711.896 621.788 712.193C621.646 712.491 621.395 712.722 621.086 712.839C620.93 712.893 620.764 712.915 620.599 712.905C620.434 712.894 620.272 712.851 620.124 712.778C619.976 712.705 619.843 712.604 619.734 712.479C619.625 712.354 619.542 712.209 619.49 712.053V712.053C619.044 710.425 618.503 708.826 617.868 707.262Z" fill="#7A6EFF"/>
<path d="M572.3 632.192C569.467 633.063 566.52 633.51 563.555 633.519C562.286 633.405 561.057 633.019 559.951 632.388C558.844 631.756 557.887 630.894 557.144 629.859C556.578 628.901 556.416 627.758 556.692 626.68C556.969 625.602 557.661 624.678 558.618 624.111L559.035 623.89C562.327 622.514 567.707 625.978 569.77 628.385C569.942 628.557 572.35 632.192 572.3 632.192Z" fill="#7A6EFF"/>
<path d="M621.308 703.848C621.848 699.648 622.536 693.605 623.003 686.333C623.15 684.245 623.273 682.035 623.371 679.75C619.422 679.389 615.548 678.445 611.875 676.95C610.327 676.164 608.971 675.049 607.901 673.682C606.832 672.315 606.075 670.731 605.684 669.04C605.581 668.291 605.625 667.53 605.816 666.798C606.007 666.067 606.34 665.381 606.796 664.778C607.253 664.176 607.823 663.67 608.475 663.288C609.128 662.906 609.849 662.657 610.597 662.555H611.212C616.125 662.555 621.038 669.629 622.413 673.732C622.413 673.977 623.175 677.195 623.494 678.841C623.47 677.447 623.52 676.054 623.641 674.665V664.839C623.641 663.709 623.469 662.628 623.396 661.498C623.248 659.852 623.027 658.182 622.806 656.585C619.042 656.808 615.265 656.46 611.605 655.554C609.95 655.004 608.435 654.102 607.163 652.911C605.891 651.719 604.892 650.266 604.235 648.651C604.006 647.935 603.92 647.18 603.982 646.431C604.045 645.682 604.254 644.952 604.599 644.284C604.943 643.615 605.416 643.021 605.99 642.536C606.564 642.05 607.228 641.682 607.944 641.453L608.657 641.281C613.422 640.52 619.465 646.784 621.406 650.616C621.406 650.763 621.799 651.599 622.192 652.63C621.922 650.985 621.652 649.339 621.332 647.717C620.374 643.026 619.293 638.285 618.188 633.519C617.967 632.536 617.77 631.554 617.549 630.547C613.679 630.795 609.793 630.447 606.028 629.515C604.374 628.974 602.857 628.078 601.584 626.89C600.311 625.702 599.313 624.25 598.659 622.637C598.43 621.92 598.344 621.166 598.406 620.417C598.468 619.668 598.678 618.938 599.022 618.269C599.367 617.601 599.84 617.007 600.414 616.521C600.988 616.036 601.652 615.668 602.368 615.439L603.081 615.267C607.846 614.506 613.889 620.77 615.83 624.602C615.83 624.749 616.297 625.756 616.739 626.911C616.174 624.307 615.658 621.728 615.216 619.124C614.455 614.689 613.988 610.208 613.816 605.711C609.833 605.955 605.836 605.616 601.951 604.704C600.294 604.159 598.776 603.259 597.504 602.067C596.231 600.874 595.234 599.419 594.581 597.802C594.352 597.085 594.266 596.331 594.328 595.582C594.391 594.832 594.6 594.103 594.944 593.434C595.289 592.766 595.762 592.172 596.336 591.686C596.91 591.201 597.574 590.833 598.29 590.604L598.978 590.432C603.744 589.671 609.787 595.935 611.752 599.767C611.752 600.061 613.275 603.746 613.717 605.097C613.651 600.672 613.98 596.249 614.7 591.881C615.297 587.981 616.117 584.118 617.156 580.311C618.139 576.774 619.22 573.581 620.227 570.78C620.767 569.282 621.308 567.906 621.799 566.629C621.799 566.629 621.504 560.807 621.529 560.438C621.848 556.14 625.017 548.009 629.709 546.879C630.448 546.724 631.21 546.718 631.951 546.859C632.693 547.001 633.399 547.288 634.029 547.703C634.659 548.119 635.201 548.655 635.623 549.281C636.045 549.906 636.34 550.609 636.489 551.349C636.501 551.537 636.501 551.726 636.489 551.914C636.503 553.649 636.142 555.366 635.43 556.948C634.717 558.53 633.671 559.938 632.362 561.077C629.228 563.401 625.757 565.232 622.069 566.506C621.578 567.832 621.062 569.257 620.522 570.878C619.588 573.679 618.557 576.872 617.672 580.41C617.451 581.368 617.23 582.399 617.009 583.382C617.721 581.785 618.753 579.624 618.876 579.427C621.16 575.767 627.695 570.019 632.387 571.173C633.842 571.575 635.078 572.538 635.825 573.85C636.571 575.163 636.765 576.718 636.366 578.174C636.315 578.383 636.25 578.589 636.17 578.788C635.391 580.344 634.282 581.711 632.92 582.793C631.558 583.875 629.976 584.646 628.284 585.052C624.409 585.642 620.467 585.642 616.591 585.052C616.125 587.263 615.707 589.523 615.388 591.906C614.77 596.233 614.531 600.606 614.675 604.975V605.736C614.896 604.901 616.469 600.332 616.616 600.037C618.483 596.131 624.354 589.72 629.144 590.358C629.886 590.481 630.597 590.748 631.236 591.145C631.874 591.542 632.429 592.061 632.867 592.673C633.305 593.284 633.618 593.976 633.788 594.708C633.959 595.441 633.983 596.2 633.86 596.942C633.872 597.13 633.872 597.319 633.86 597.507C633.25 599.132 632.294 600.605 631.061 601.826C629.827 603.048 628.343 603.987 626.712 604.581C622.841 605.634 618.83 606.082 614.823 605.908C615.096 610.263 615.654 614.596 616.493 618.878C617.083 622.023 617.82 625.216 618.606 628.409C618.925 627.304 620.374 623.079 620.522 622.784C622.364 618.878 628.235 612.467 633.025 613.106C633.766 613.222 634.477 613.484 635.116 613.875C635.756 614.267 636.312 614.781 636.752 615.388C637.193 615.995 637.509 616.683 637.683 617.413C637.857 618.143 637.885 618.899 637.766 619.64L637.619 620.254C637.024 621.884 636.077 623.363 634.846 624.586C633.615 625.808 632.129 626.745 630.495 627.329C626.637 628.365 622.647 628.821 618.655 628.68L619.736 633.003C620.915 637.744 622.192 642.485 623.175 647.177C623.543 648.823 623.838 650.444 624.133 652.09C624.673 650.444 625.68 647.521 625.803 647.177C627.646 643.271 633.541 636.86 638.307 637.498C639.048 637.615 639.758 637.877 640.398 638.268C641.037 638.66 641.593 639.174 642.034 639.781C642.474 640.388 642.79 641.076 642.964 641.806C643.138 642.535 643.167 643.292 643.048 644.033L642.9 644.647C642.305 646.277 641.358 647.756 640.127 648.978C638.896 650.201 637.411 651.138 635.776 651.722C632.059 652.747 628.208 653.203 624.354 653.073C624.845 655.775 625.263 658.452 625.558 661.13C625.558 662.284 625.852 663.463 625.877 664.569C625.901 665.674 625.877 666.804 626.049 667.91V677.539C626.344 675.82 626.835 673.093 626.909 672.847C628.161 668.72 632.976 661.474 637.815 661.375C639.325 661.388 640.768 661.997 641.831 663.069C642.894 664.141 643.49 665.59 643.49 667.099C643.502 667.32 643.502 667.541 643.49 667.762C643.139 669.461 642.421 671.063 641.385 672.455C640.35 673.847 639.022 674.995 637.496 675.82C633.872 677.442 630.019 678.495 626.073 678.939C626.073 681.396 626.073 683.975 625.852 686.309C625.508 693.678 624.968 699.77 624.501 704.02C624.034 708.27 623.691 710.751 623.691 710.751C623.66 710.972 623.587 711.185 623.474 711.378C623.361 711.57 623.212 711.739 623.034 711.874C622.856 712.008 622.653 712.107 622.437 712.163C622.221 712.219 621.996 712.231 621.775 712.2C621.331 712.133 620.931 711.895 620.66 711.537C620.389 711.179 620.269 710.73 620.325 710.284V710.284C620.773 708.159 621.101 706.01 621.308 703.848V703.848Z" fill="#7A6EFF"/>
<path d="M616.222 584.414C616.222 584.414 607.919 582.571 604.922 580.287C603.477 579.326 602.26 578.061 601.356 576.58C600.452 575.099 599.884 573.438 599.69 571.714C599.657 570.198 600.224 568.73 601.269 567.63C602.313 566.53 603.75 565.888 605.266 565.843H605.856C610.646 566.359 614.822 573.998 615.682 578.125C615.78 578.592 616.296 584.438 616.222 584.414Z" fill="#7A6EFF"/>
<path opacity="0.3" d="M424.498 315.91C425.969 319.959 428.675 323.442 432.234 325.869C435.793 328.295 440.025 329.541 444.331 329.431C446.555 329.376 448.755 328.955 450.842 328.184C454.664 326.791 457.987 324.296 460.391 321.015C462.796 317.734 464.173 313.813 464.349 309.749C464.525 305.685 463.492 301.66 461.38 298.183C459.269 294.706 456.174 291.933 452.487 290.215C448.799 288.496 444.685 287.91 440.665 288.53C436.645 289.15 432.898 290.948 429.9 293.698C426.901 296.447 424.785 300.023 423.819 303.975C422.853 307.926 423.081 312.075 424.473 315.898L424.498 315.91Z" fill="#FAFAFA"/>
<path opacity="0.4" d="M427.678 296.078L463.976 312.992C464.038 312.68 464.1 312.38 464.15 312.069C464.471 310.071 464.492 308.036 464.213 306.032V306.032L432.867 291.425C430.883 292.667 429.128 294.241 427.678 296.078Z" fill="#FAFAFA"/>
<path opacity="0.4" d="M413.529 302.382L459.15 323.626C462.322 320.858 464.81 317.394 466.42 313.504L416.613 290.293C414.672 294.033 413.617 298.17 413.529 302.382V302.382Z" fill="#FAFAFA"/>
<path d="M435.71 286.573C440.114 284.977 444.892 284.722 449.441 285.84C453.99 286.958 458.106 289.399 461.268 292.855C464.431 296.31 466.498 300.626 467.209 305.256C467.921 309.885 467.244 314.622 465.265 318.868C463.286 323.114 460.093 326.678 456.089 329.11C452.086 331.542 447.451 332.733 442.771 332.532C438.091 332.332 433.576 330.749 429.795 327.984C426.014 325.219 423.137 321.395 421.528 316.996C420.457 314.067 419.974 310.956 420.107 307.841C420.241 304.726 420.988 301.667 422.305 298.841C423.623 296.015 425.485 293.477 427.785 291.371C430.085 289.266 432.778 287.636 435.71 286.573V286.573ZM450.229 326.488C453.704 325.223 456.727 322.956 458.914 319.974C461.102 316.992 462.356 313.428 462.52 309.733C462.683 306.039 461.748 302.378 459.832 299.215C457.916 296.051 455.106 293.527 451.756 291.96C448.406 290.393 444.666 289.853 441.01 290.41C437.354 290.967 433.945 292.596 431.213 295.089C428.482 297.583 426.551 300.83 425.664 304.42C424.777 308.011 424.974 311.784 426.23 315.262C427.069 317.575 428.355 319.699 430.015 321.514C431.676 323.329 433.678 324.799 435.907 325.839C438.136 326.88 440.548 327.47 443.006 327.577C445.463 327.684 447.918 327.306 450.229 326.463V326.488Z" fill="#4A3AFF"/>
<path opacity="0.3" d="M435.71 286.573C440.114 284.977 444.892 284.722 449.441 285.84C453.99 286.958 458.106 289.399 461.268 292.855C464.431 296.31 466.498 300.626 467.209 305.256C467.921 309.885 467.244 314.622 465.265 318.868C463.286 323.114 460.093 326.678 456.089 329.11C452.086 331.542 447.451 332.733 442.771 332.532C438.091 332.332 433.576 330.749 429.795 327.984C426.014 325.219 423.137 321.395 421.528 316.996C420.457 314.067 419.974 310.956 420.107 307.841C420.241 304.726 420.988 301.667 422.305 298.841C423.623 296.015 425.485 293.477 427.785 291.371C430.085 289.266 432.778 287.636 435.71 286.573V286.573ZM450.229 326.488C453.704 325.223 456.727 322.956 458.914 319.974C461.102 316.992 462.356 313.428 462.52 309.733C462.683 306.039 461.748 302.378 459.832 299.215C457.916 296.051 455.106 293.527 451.756 291.96C448.406 290.393 444.666 289.853 441.01 290.41C437.354 290.967 433.945 292.596 431.213 295.089C428.482 297.583 426.551 300.83 425.664 304.42C424.777 308.011 424.974 311.784 426.23 315.262C427.069 317.575 428.355 319.699 430.015 321.514C431.676 323.329 433.678 324.799 435.907 325.839C438.136 326.88 440.548 327.47 443.006 327.577C445.463 327.684 447.918 327.306 450.229 326.463V326.488Z" fill="#170F49"/>
<path d="M447.628 330.262C449.212 337.916 451.413 345.369 453.697 352.773C454.914 356.458 456.048 360.159 457.366 363.794L459.3 369.28C459.603 370.326 460.143 371.288 460.877 372.091C461.612 372.895 462.521 373.519 463.535 373.916C464.615 374.376 465.829 374.409 466.932 374.006C468.034 373.603 468.942 372.796 469.471 371.748C469.994 370.794 470.29 369.732 470.336 368.644C470.383 367.557 470.178 366.474 469.738 365.479L467.687 360.043C466.353 356.408 464.836 352.839 463.402 349.238C460.4 342.084 457.282 334.981 453.564 328.095C453.209 327.405 452.614 326.869 451.892 326.587C451.169 326.304 450.369 326.295 449.64 326.561C448.912 326.827 448.305 327.35 447.935 328.032C447.564 328.713 447.455 329.506 447.628 330.262V330.262Z" fill="#4A3AFF"/>
<path opacity="0.3" d="M447.628 330.262C449.212 337.916 451.413 345.369 453.697 352.773C454.914 356.458 456.048 360.159 457.366 363.794L459.3 369.28C459.603 370.326 460.143 371.288 460.877 372.091C461.612 372.895 462.521 373.519 463.535 373.916C464.615 374.376 465.829 374.409 466.932 374.006C468.034 373.603 468.942 372.796 469.471 371.748C469.994 370.794 470.29 369.732 470.336 368.644C470.383 367.557 470.178 366.474 469.738 365.479L467.687 360.043C466.353 356.408 464.836 352.839 463.402 349.238C460.4 342.084 457.282 334.981 453.564 328.095C453.209 327.405 452.614 326.869 451.892 326.587C451.169 326.304 450.369 326.295 449.64 326.561C448.912 326.827 448.305 327.35 447.935 328.032C447.564 328.713 447.455 329.506 447.628 330.262V330.262Z" fill="#170F49"/>
<path d="M570.868 322.976C571.169 323.393 571.652 324.126 572.036 324.727L573.286 326.678C574.103 327.995 574.954 329.345 575.621 330.729C577.12 333.434 578.473 336.217 579.672 339.067C582.033 344.596 583.496 350.467 584.008 356.458V357.575V357.809C584.008 357.959 583.708 358.442 582.857 358.926C580.453 360.074 577.859 360.775 575.204 360.993C568.796 361.618 562.346 361.673 555.928 361.16L554.477 368.08C561.35 370.307 568.5 371.559 575.721 371.798C577.665 371.814 579.609 371.708 581.54 371.482C583.736 371.223 585.885 370.662 587.926 369.814C590.605 368.751 592.92 366.939 594.596 364.595C595.504 363.236 596.154 361.721 596.514 360.126C596.79 358.828 596.919 357.502 596.897 356.175C596.918 348.559 595.504 341.007 592.729 333.914C591.449 330.452 589.934 327.081 588.193 323.826C587.326 322.159 586.392 320.625 585.425 319.057C584.942 318.274 584.441 317.49 583.908 316.723C583.374 315.956 582.891 315.239 582.24 314.305L570.868 322.976Z" fill="#FFC1B4"/>
<path d="M575.855 299.782C581.624 301.182 595.264 323.926 595.264 323.926L564.699 336.582C564.699 336.582 559.18 319.274 562.649 312.354C566.25 305.151 568.068 297.864 575.855 299.782Z" fill="#4A3AFF"/>
<path opacity="0.2" d="M575.855 299.782C581.624 301.182 595.264 323.926 595.264 323.926L564.699 336.582C564.699 336.582 559.18 319.274 562.649 312.354C566.25 305.151 568.068 297.864 575.855 299.782Z" fill="#170F49"/>
<path d="M554.644 360.443L540.638 358.959L548.425 370.731C548.425 370.731 557.362 369.914 559.646 364.562L554.644 360.443Z" fill="#FFC1B4"/>
<path d="M530.651 365.195L541.405 376.884L548.509 370.731L540.638 358.959L530.651 365.195Z" fill="#FFC1B4"/>
<path d="M573.07 699.717C574.318 699.685 575.559 699.518 576.771 699.216C576.832 699.2 576.887 699.166 576.929 699.119C576.971 699.071 576.997 699.012 577.005 698.95C577.017 698.887 577.011 698.822 576.987 698.763C576.963 698.704 576.923 698.653 576.871 698.616C576.388 698.299 572.186 695.565 570.535 696.298C570.352 696.382 570.194 696.512 570.077 696.676C569.96 696.84 569.888 697.032 569.868 697.232C569.805 697.549 569.822 697.877 569.918 698.186C570.014 698.495 570.186 698.774 570.418 699C571.191 699.543 572.129 699.796 573.07 699.717V699.717ZM575.821 698.749C573.386 699.233 571.569 699.15 570.819 698.499C570.664 698.352 570.552 698.166 570.494 697.961C570.435 697.756 570.432 697.539 570.485 697.332C570.484 697.24 570.511 697.15 570.561 697.072C570.612 696.995 570.684 696.935 570.769 696.899C571.669 696.532 574.103 697.682 575.821 698.749V698.749Z" fill="#4A3AFF"/>
<path d="M576.688 699.234C576.775 699.23 576.858 699.193 576.919 699.132C576.981 699.07 577.017 698.987 577.021 698.9C577.021 698.734 577.021 694.715 575.521 693.364C575.337 693.187 575.116 693.054 574.873 692.976C574.63 692.898 574.373 692.877 574.12 692.914C573.855 692.917 573.599 693.012 573.395 693.182C573.191 693.352 573.053 693.587 573.003 693.848C572.686 695.415 575.204 698.433 576.521 699.184C576.571 699.216 576.629 699.233 576.688 699.234ZM574.354 693.564C574.623 693.566 574.881 693.674 575.071 693.865C575.939 695.159 576.382 696.692 576.338 698.25C575.021 697.199 573.453 694.915 573.653 693.981C573.653 693.815 573.77 693.631 574.204 693.581L574.354 693.564Z" fill="#4A3AFF"/>
<path d="M509.541 699.717C511.02 699.685 512.494 699.517 513.943 699.217C514.008 699.206 514.068 699.174 514.113 699.126C514.158 699.077 514.186 699.016 514.193 698.95C514.208 698.881 514.2 698.81 514.169 698.746C514.139 698.683 514.089 698.631 514.026 698.6C513.393 698.283 507.857 695.431 506.139 696.365C505.977 696.451 505.839 696.578 505.74 696.733C505.64 696.887 505.583 697.065 505.572 697.249C505.521 697.554 505.548 697.866 505.65 698.158C505.752 698.449 505.926 698.71 506.156 698.916C507.162 699.557 508.354 699.839 509.541 699.717ZM512.876 698.75C509.774 699.267 507.473 699.133 506.623 698.366C506.484 698.232 506.378 698.067 506.314 697.885C506.25 697.702 506.231 697.507 506.256 697.316C506.257 697.239 506.28 697.164 506.321 697.099C506.362 697.035 506.42 696.983 506.489 696.949C507.39 696.449 510.558 697.682 512.842 698.75H512.876Z" fill="#4A3AFF"/>
<path d="M513.875 699.233C513.934 699.256 514 699.256 514.059 699.233C514.107 699.199 514.146 699.154 514.172 699.102C514.198 699.049 514.211 698.991 514.209 698.933C514.209 698.783 513.892 695.014 512.141 693.563C511.892 693.345 511.601 693.18 511.285 693.08C510.969 692.979 510.636 692.945 510.307 692.98C509.39 693.08 509.123 693.547 509.073 693.93C508.806 695.598 512.041 698.499 513.742 699.266L513.875 699.233ZM510.54 693.563C510.963 693.566 511.372 693.719 511.691 693.997C512.67 695.235 513.251 696.741 513.358 698.316C511.691 697.282 509.44 694.981 509.607 693.964C509.607 693.964 509.607 693.63 510.257 693.58L510.54 693.563Z" fill="#4A3AFF"/>
<path d="M551.492 266C549.824 274.337 546.023 291.011 551.792 296.597C551.792 296.597 549.474 304.934 534.067 304.934C517.143 304.934 526.03 296.597 526.03 296.597C535.284 294.396 535.101 287.543 533.517 281.107L551.492 266Z" fill="#FFC1B4"/>
<path d="M529.231 698.899H515.258L514.541 666.551H528.514L529.231 698.899Z" fill="#FFC1B4"/>
<path d="M592.695 698.899H578.722L574.437 666.551H588.41L592.695 698.899Z" fill="#FFC1B4"/>
<path d="M577.871 697.282H593.561C593.83 697.276 594.091 697.37 594.294 697.545C594.498 697.721 594.629 697.966 594.662 698.232L596.329 710.655C596.357 710.97 596.319 711.287 596.218 711.587C596.116 711.886 595.954 712.161 595.741 712.395C595.528 712.629 595.268 712.815 594.979 712.943C594.69 713.072 594.378 713.138 594.061 713.139C588.592 713.039 585.958 712.722 579.054 712.722C574.819 712.722 568.616 713.156 562.747 713.156C556.877 713.156 556.611 707.353 559.062 706.836C570.017 704.485 571.768 701.234 575.469 698.132C576.145 697.576 576.995 697.275 577.871 697.282V697.282Z" fill="#170F49"/>
<path d="M514.793 697.282H530.484C530.753 697.279 531.015 697.373 531.22 697.548C531.425 697.723 531.56 697.966 531.601 698.232L533.268 710.655C533.301 710.969 533.267 711.287 533.169 711.588C533.07 711.889 532.91 712.165 532.697 712.4C532.485 712.634 532.226 712.821 531.936 712.948C531.647 713.076 531.333 713.141 531.017 713.139C525.548 713.039 522.913 712.722 516.01 712.722C511.758 712.722 502.971 713.156 497.118 713.156C491.265 713.156 490.982 707.353 493.416 706.836C504.388 704.485 508.707 701.234 512.425 698.132C513.09 697.58 513.928 697.279 514.793 697.282V697.282Z" fill="#170F49"/>
<path d="M514.543 666.568L514.91 683.226H528.883L528.516 666.568H514.543Z" fill="#FB8A72"/>
<path d="M588.41 666.568H574.437L576.655 683.226H590.628L588.41 666.568Z" fill="#FB8A72"/>
<path d="M502.403 300.182C502.403 300.182 495.733 302.533 508.522 384.471H565.215C564.415 361.393 564.482 347.153 575.82 299.782C567.887 298.142 559.846 297.077 551.759 296.597C543.182 295.996 534.574 295.996 525.997 296.597C514.959 297.614 502.403 300.182 502.403 300.182Z" fill="#4A3AFF"/>
<path opacity="0.2" d="M502.403 300.182C502.403 300.182 495.733 302.533 508.522 384.471H565.215C564.415 361.393 564.482 347.153 575.82 299.782C567.887 298.142 559.846 297.077 551.759 296.597C543.182 295.996 534.574 295.996 525.997 296.597C514.959 297.614 502.403 300.182 502.403 300.182Z" fill="#170F49"/>
<path d="M497.817 315.722C496.6 322.875 495.016 330.362 493.232 337.499C492.315 341.084 491.281 344.619 490.13 348.054C489.056 351.415 487.746 354.697 486.212 357.875C485.516 359.34 484.719 360.755 483.827 362.11C483.41 362.761 482.977 363.311 482.543 363.878C482.288 364.214 482.004 364.526 481.693 364.812C481.291 365.207 480.756 365.439 480.192 365.462C479.08 365.445 477.985 365.177 476.991 364.678C474.038 363.2 471.319 361.296 468.92 359.026C467.62 357.825 466.303 356.558 465.019 355.257C463.735 353.957 462.467 352.523 461.317 351.239L455.347 355.024C456.258 356.874 457.272 358.672 458.382 360.41C459.459 362.142 460.634 363.812 461.9 365.412C464.544 368.985 467.788 372.071 471.488 374.533C473.791 376.052 476.407 377.033 479.142 377.401C482.455 377.809 485.808 377.073 488.646 375.316C489.919 374.504 491.089 373.541 492.131 372.448C492.945 371.572 493.713 370.653 494.432 369.697C495.769 367.949 496.984 366.11 498.067 364.195C501.884 356.911 504.865 349.22 506.955 341.267C508.022 337.416 509.022 333.564 509.823 329.595C510.623 325.627 511.373 321.875 511.957 317.773L497.817 315.722Z" fill="#FFC1B4"/>
<path d="M502.402 300.182C496.633 301.649 492.398 325.344 492.398 325.344L514.508 340.434C514.508 340.434 523.562 312.221 519.177 305.901C514.658 299.298 510.806 298.048 502.402 300.182Z" fill="#4A3AFF"/>
<path opacity="0.2" d="M502.402 300.182C496.633 301.649 492.398 325.344 492.398 325.344L514.508 340.434C514.508 340.434 523.562 312.221 519.177 305.901C514.658 299.298 510.806 298.048 502.402 300.182Z" fill="#170F49"/>
<path d="M456.132 356.108L448.562 345.303L461.718 345.019C461.718 345.019 464.819 351.272 462.718 356.691L456.132 356.108Z" fill="#FFC1B4"/>
<path d="M447.378 339.667L447.778 338.616C447.866 338.389 448.006 338.185 448.188 338.022C448.369 337.859 448.586 337.741 448.822 337.677C449.057 337.614 449.305 337.607 449.543 337.657C449.782 337.707 450.006 337.813 450.196 337.966L453.914 340.934C454.454 341.371 455.118 341.628 455.811 341.67C456.505 341.712 457.194 341.536 457.783 341.167L458.933 339.867C459.046 339.73 459.187 339.621 459.347 339.545C459.507 339.47 459.682 339.431 459.859 339.431C460.035 339.431 460.21 339.47 460.37 339.545C460.53 339.621 460.671 339.73 460.784 339.867L461.068 340.2C461.671 340.934 462.053 341.825 462.168 342.768L462.818 348.204L460.05 346.02L448.545 345.269L447.478 342.968C447.24 342.453 447.109 341.895 447.091 341.328C447.074 340.76 447.172 340.195 447.378 339.667V339.667Z" fill="#FFC1B4"/>
<path d="M551.043 245.139C553.327 258.829 554.578 264.565 549.375 273.102C541.538 285.925 524.263 285.841 517.961 273.102C512.275 261.68 509.507 241.221 521.445 232.734C524.056 230.844 527.109 229.658 530.311 229.289C533.512 228.92 536.755 229.38 539.727 230.626C542.7 231.872 545.302 233.861 547.283 236.403C549.265 238.944 550.559 241.953 551.043 245.139Z" fill="#FFC1B4"/>
<path d="M514.475 322.091C501.135 338.466 526.147 358.958 557.311 352.455C601.932 343.118 563.981 323.759 578.805 309.719C593.628 295.679 580.605 286.942 571.585 276.52C562.564 266.099 561.88 265.782 562.547 245.806C563.214 225.83 540.754 220.794 523.929 226.497C511.69 230.666 517.259 249.641 524.379 259.396C531.499 269.15 512.04 275.12 513.324 288.459C514.608 301.799 526.997 306.801 514.475 322.091Z" fill="#170F49"/>
<path d="M534.735 224.396C520.429 222.879 510.874 224.713 509.724 236.585C508.573 248.458 526.165 255.394 526.165 255.394L534.735 224.396Z" fill="#170F49"/>
<path d="M528.716 257.078C529.028 259.75 528.28 262.439 526.631 264.565C524.414 267.35 521.245 265.882 520.128 262.714C519.111 259.863 519.061 254.961 522.113 253.31C522.784 252.964 523.531 252.792 524.286 252.808C525.041 252.825 525.78 253.029 526.436 253.403C527.092 253.778 527.644 254.31 528.042 254.952C528.44 255.593 528.672 256.324 528.716 257.078Z" fill="#FFC1B4"/>
<path d="M523.514 384.487C523.514 384.487 526.649 413.267 530.817 448.1C533.485 470.327 536.57 495.022 539.538 516.282C540.272 521.668 541.022 526.82 541.739 531.672C548.242 575.309 573.304 680.074 573.304 680.074H592.346C592.346 680.074 581.707 578.877 578.539 535.707C570.519 426.507 583.258 409.866 565.2 384.554L523.514 384.487Z" fill="#170F49"/>
<path d="M570.168 680.325H595.479L595.046 671.32L568.083 670.637L570.168 680.325Z" fill="#4A3AFF"/>
<path opacity="0.8" d="M570.168 680.325H595.479L595.046 671.32L568.083 670.637L570.168 680.325Z" fill="white"/>
<path opacity="0.4" d="M530.816 448.101C533.484 470.327 536.569 495.022 539.537 516.282C543.972 493.705 553.977 437.912 538.253 428.108C534.468 433.11 532.117 440.097 530.816 448.101Z" fill="#170F49"/>
<path d="M508.523 384.471C508.523 384.471 499.502 489.386 500.185 531.972C500.852 576.276 512.024 680.008 512.024 680.008H530.85C530.85 680.008 532.917 578.861 534.868 535.357C537.003 487.919 550.059 384.471 550.059 384.471H508.523Z" fill="#170F49"/>
<path d="M509.123 680.325H533.968L534.418 671.32L507.039 670.637L509.123 680.325Z" fill="#4A3AFF"/>
<path opacity="0.8" d="M509.123 680.325H533.968L534.418 671.32L507.039 670.637L509.123 680.325Z" fill="white"/>
<path d="M566.116 381.153L568.65 386.155C568.834 386.555 568.367 386.955 567.716 386.955H508.222C507.722 386.955 507.288 386.705 507.272 386.388L506.788 381.386C506.788 381.036 507.205 380.736 507.755 380.736H565.199C565.374 380.72 565.552 380.75 565.712 380.823C565.873 380.896 566.012 381.009 566.116 381.153V381.153Z" fill="#4A3AFF"/>
<path opacity="0.5" d="M566.116 381.153L568.65 386.155C568.834 386.555 568.367 386.955 567.716 386.955H508.222C507.722 386.955 507.288 386.705 507.272 386.388L506.788 381.386C506.788 381.036 507.205 380.736 507.755 380.736H565.199C565.374 380.72 565.552 380.75 565.712 380.823C565.873 380.896 566.012 381.009 566.116 381.153V381.153Z" fill="white"/>
<path d="M558.43 387.539H559.964C560.28 387.539 560.514 387.389 560.497 387.189L559.814 380.519C559.814 380.336 559.53 380.169 559.213 380.169H557.679C557.379 380.169 557.146 380.336 557.162 380.519L557.846 387.189C557.796 387.422 558.063 387.539 558.43 387.539Z" fill="#170F49"/>
<path d="M521.078 387.539H522.612C522.912 387.539 523.146 387.389 523.129 387.189L522.462 380.519C522.462 380.336 522.162 380.169 521.862 380.169H520.328C520.011 380.169 519.777 380.336 519.794 380.519L520.478 387.189C520.494 387.422 520.761 387.539 521.078 387.539Z" fill="#170F49"/>
<path d="M217.341 587.783C219.8 586.051 222.45 582.968 222.537 579.712C222.57 578.949 222.442 578.188 222.163 577.477C221.884 576.767 221.459 576.122 220.915 575.586C220.372 575.049 219.723 574.632 219.009 574.361C218.295 574.091 217.532 573.972 216.77 574.014C212.18 574.43 208.11 581.635 207.14 585.635C207.14 585.982 206.447 591.541 206.534 591.524C206.62 591.507 214.431 589.844 217.341 587.783Z" fill="#7A6EFF"/>
<path d="M177.697 674.622C177.587 674.004 177.347 673.417 176.993 672.898C176.64 672.38 176.18 671.943 175.645 671.615C175.109 671.288 174.511 671.078 173.888 670.999C173.265 670.92 172.633 670.974 172.033 671.158C168.569 672.353 166.612 678.848 166.664 682.208C166.664 682.416 166.993 684.944 167.184 686.226C166.785 685.239 166.404 684.234 166.006 683.195C165.435 681.688 164.88 680.095 164.274 678.536L163.495 676.06C163.218 675.228 163.044 674.328 162.819 673.566C162.507 672.319 162.248 671.02 161.988 669.721C164.803 668.939 167.479 667.724 169.92 666.118C171.808 664.386 173.73 661.84 173.54 659.191C173.517 658.568 173.364 657.957 173.089 657.398C172.815 656.838 172.425 656.343 171.946 655.944C171.468 655.546 170.91 655.252 170.31 655.083C169.711 654.915 169.082 654.874 168.465 654.965C164.776 655.623 161.936 661.754 161.538 665.079C161.538 665.183 161.538 665.893 161.538 666.811C161.33 665.529 161.105 664.265 160.931 662.966C160.412 659.294 160.014 655.536 159.598 651.778C159.511 650.981 159.407 650.202 159.321 649.422C162.216 648.611 164.971 647.367 167.495 645.733C169.383 644.001 171.306 641.455 171.115 638.806C171.09 638.184 170.935 637.574 170.659 637.016C170.384 636.458 169.994 635.964 169.516 635.566C169.038 635.168 168.482 634.874 167.883 634.704C167.284 634.534 166.657 634.492 166.041 634.58C162.352 635.238 159.511 641.369 159.113 644.694C159.113 644.815 159.113 645.664 159.113 646.599C158.853 644.573 158.576 642.529 158.23 640.52C157.663 637.071 156.871 633.664 155.857 630.319C156.324 630.181 162.161 628.414 164.291 626.561C166.162 624.829 168.102 622.283 167.894 619.633C167.871 619.01 167.718 618.399 167.443 617.84C167.168 617.281 166.779 616.786 166.3 616.387C165.821 615.988 165.264 615.695 164.664 615.526C164.064 615.357 163.436 615.317 162.819 615.407C159.13 616.065 156.29 622.196 155.891 625.522C155.891 625.747 155.788 628.83 155.805 629.921C155.797 629.881 155.797 629.84 155.805 629.8C154.717 626.544 153.343 623.391 151.7 620.378C150.252 617.675 148.644 615.061 146.885 612.549C145.275 610.194 143.664 608.15 142.209 606.349C141.43 605.379 140.685 604.496 139.992 603.699C139.992 603.699 138.745 599.352 138.624 599.075C137.29 596.009 132.909 590.866 129.168 591.247C128.551 591.324 127.957 591.531 127.426 591.854C126.895 592.177 126.437 592.608 126.084 593.12C125.731 593.632 125.49 594.212 125.377 594.824C125.263 595.435 125.28 596.063 125.427 596.668C125.946 599.265 128.51 601.257 130.778 602.348C133.664 603.256 136.673 603.706 139.698 603.682C140.408 604.548 141.153 605.414 141.949 606.488C143.352 608.324 144.928 610.402 146.47 612.775C146.885 613.415 147.301 614.108 147.717 614.766C146.781 613.796 145.483 612.463 145.327 612.359C142.729 610.246 136.476 607.7 133.342 609.744C132.829 610.099 132.397 610.559 132.074 611.093C131.751 611.626 131.543 612.222 131.464 612.841C131.386 613.46 131.439 614.088 131.619 614.685C131.799 615.283 132.103 615.835 132.51 616.308C133.455 617.24 134.588 617.959 135.834 618.416C137.08 618.873 138.409 619.058 139.733 618.958C142.33 618.958 147.249 616.533 148.392 616.013C149.31 617.503 150.124 619.062 151.042 620.741C152.599 623.75 153.886 626.892 154.887 630.129C154.887 630.319 154.887 630.527 155.026 630.717C154.644 630.146 152.341 627.254 152.151 627.028C149.795 624.638 143.855 621.417 140.512 623.114C139.963 623.41 139.483 623.819 139.102 624.313C138.722 624.807 138.45 625.376 138.305 625.982C138.159 626.589 138.144 627.219 138.258 627.832C138.373 628.445 138.616 629.027 138.97 629.54C140.391 631.757 143.508 632.709 146.002 632.9C148.877 633.125 154.835 630.925 155.06 630.839C155.966 634.099 156.66 637.413 157.138 640.763C157.502 643.239 157.779 645.751 158.022 648.297C157.52 647.569 155.355 644.833 155.181 644.66C152.826 642.269 146.885 639.065 143.543 640.745C142.994 641.041 142.514 641.45 142.133 641.944C141.753 642.438 141.481 643.007 141.336 643.614C141.19 644.22 141.174 644.85 141.289 645.463C141.404 646.076 141.647 646.658 142.001 647.171C143.422 649.405 146.539 650.34 149.033 650.531C151.839 650.756 157.554 648.678 158.039 648.504C158.16 649.648 158.264 650.808 158.368 651.968C158.715 655.744 159.026 659.52 159.459 663.243C159.615 664.525 159.806 665.789 159.996 667.053C159.2 665.997 157.693 664.109 157.554 663.953C155.199 661.581 149.258 658.359 145.916 660.056C145.366 660.349 144.884 660.755 144.502 661.247C144.12 661.739 143.847 662.306 143.7 662.911C143.552 663.516 143.535 664.146 143.648 664.758C143.761 665.371 144.003 665.952 144.357 666.465C145.794 668.699 148.912 669.634 151.406 669.825C154.374 669.634 157.295 668.985 160.065 667.902C160.395 670.015 160.758 672.093 161.226 674.12C161.451 675.003 161.624 675.852 161.884 676.718C162.144 677.584 162.352 678.45 162.594 679.212C163.148 680.944 163.651 682.45 164.205 684.009C164.482 684.789 164.759 685.516 165.036 686.278C164.395 685.083 163.304 683.212 163.2 683.057C161.243 680.355 155.857 676.267 152.289 677.428C151.702 677.638 151.167 677.969 150.717 678.399C150.267 678.83 149.912 679.351 149.677 679.928C149.442 680.505 149.331 681.125 149.351 681.747C149.371 682.37 149.523 682.981 149.795 683.542C150.869 685.966 153.813 687.369 156.238 687.941C158.663 688.512 164.707 687.438 165.4 687.3C166.093 689.153 166.785 690.954 167.444 692.634C169.574 697.934 171.531 702.264 172.951 705.277C174.371 708.291 175.255 709.988 175.255 709.988C175.419 710.283 175.692 710.502 176.015 710.599C176.339 710.696 176.687 710.663 176.987 710.508C177.278 710.34 177.494 710.067 177.591 709.745C177.687 709.423 177.657 709.076 177.506 708.776C177.506 708.776 176.623 707.148 175.151 704.186C173.679 701.225 171.687 696.999 169.435 691.803C168.794 690.296 168.136 688.703 167.478 687.057C168.154 686.728 173.436 684.182 175.203 682.069C176.969 679.956 178.285 677.203 177.697 674.622Z" fill="#7A6EFF"/>
<path d="M148.393 615.286C148.393 615.286 153.987 611.822 155.598 609.38C156.983 607.284 158.144 604.184 157.33 601.759C157.142 601.166 156.831 600.619 156.418 600.154C156.004 599.689 155.498 599.316 154.931 599.06C154.364 598.803 153.75 598.669 153.128 598.666C152.505 598.662 151.89 598.79 151.32 599.04C147.856 600.633 146.817 607.301 147.25 610.627C147.25 610.904 148.393 615.32 148.393 615.286Z" fill="#7A6EFF"/>
<path d="M233.639 587.783C236.531 589.93 244.463 591.524 244.463 591.524C244.463 591.524 243.944 585.981 243.857 585.635C242.939 581.634 238.835 574.429 234.245 574.014C233.482 573.969 232.718 574.086 232.003 574.355C231.287 574.625 230.637 575.042 230.093 575.579C229.549 576.116 229.124 576.762 228.846 577.474C228.568 578.186 228.442 578.948 228.477 579.712C228.512 582.881 231.162 585.877 233.639 587.783Z" fill="#7A6EFF"/>
<path d="M266.545 664.594C261.955 664.785 257.47 671.764 256.361 675.73C256.361 675.956 255.876 678.571 255.634 680.233C255.634 679.229 255.634 678.276 255.634 677.255C255.634 675.228 255.53 673.202 255.443 671.037C255.443 669.998 255.305 668.941 255.218 667.867C255.132 666.794 254.976 665.685 254.854 664.594C254.525 662.048 254.075 659.502 253.556 656.922C255.287 656.922 261.626 656.731 264.415 655.449C267.203 654.168 270.39 651.743 271.083 648.522C271.276 647.781 271.31 647.008 271.183 646.253C271.055 645.498 270.769 644.778 270.344 644.142C269.919 643.505 269.363 642.966 268.714 642.56C268.066 642.154 267.338 641.889 266.58 641.784C262.007 641.248 256.517 647.483 254.82 651.241C254.716 651.466 253.798 654.289 253.33 655.848C253.001 654.306 252.69 652.765 252.326 651.224C251.235 646.755 249.988 642.269 248.775 637.784C248.394 636.415 248.048 635.03 247.684 633.662C248.671 633.662 255.876 633.662 258.925 632.172C261.973 630.683 264.9 628.466 265.593 625.244C265.783 624.504 265.815 623.731 265.686 622.977C265.558 622.224 265.271 621.505 264.847 620.87C264.422 620.234 263.867 619.695 263.22 619.288C262.573 618.881 261.847 618.615 261.089 618.507C256.517 617.988 251.044 624.223 249.347 627.964C249.208 628.241 247.892 632.311 247.615 633.367C246.818 630.336 246.056 627.323 245.433 624.309C244.57 620.26 243.974 616.158 243.649 612.03C244.186 612.03 251.806 612.03 254.958 610.54C257.747 609.259 260.934 606.834 261.644 603.613C261.831 602.871 261.86 602.098 261.73 601.344C261.599 600.59 261.311 599.872 260.885 599.237C260.458 598.601 259.903 598.063 259.255 597.656C258.607 597.249 257.881 596.983 257.123 596.875C252.551 596.356 247.078 602.591 245.381 606.332C245.242 606.626 243.839 611.008 243.649 611.805C243.649 611.579 243.649 611.32 243.649 611.077C243.417 606.922 243.556 602.755 244.065 598.625C244.324 596.338 244.688 594.156 245.104 592.061C246.593 592.216 253.209 592.805 256.24 591.783C259.271 590.762 262.596 588.77 263.635 585.687C263.902 584.971 264.016 584.208 263.969 583.445C263.922 582.683 263.716 581.939 263.363 581.261C263.011 580.584 262.52 579.988 261.922 579.512C261.325 579.036 260.634 578.691 259.894 578.499C255.391 577.478 249.26 583.072 247.165 586.605C247.061 586.795 246.108 588.874 245.433 590.415C245.623 589.463 245.814 588.475 246.022 587.575C246.801 584.111 247.754 581.115 248.55 578.413C249.035 576.889 249.503 575.503 249.953 574.222C251.46 573.615 257.487 571.139 259.669 568.87C261.852 566.601 263.913 563.258 263.41 560.054C263.321 559.295 263.072 558.562 262.68 557.905C262.287 557.248 261.761 556.682 261.135 556.242C260.509 555.802 259.797 555.5 259.046 555.354C258.295 555.208 257.522 555.222 256.777 555.395C252.326 556.556 249.468 564.35 249.226 568.454C249.226 568.801 249.537 574.395 249.607 574.36H249.693C249.243 575.59 248.758 576.906 248.256 578.361C247.373 581.045 246.385 584.094 245.537 587.488C244.577 591.131 243.831 594.826 243.302 598.555C242.698 602.729 242.466 606.949 242.61 611.164V611.32C242.159 610.055 240.774 606.54 240.635 606.297C238.696 602.66 232.807 596.806 228.287 597.637C227.274 597.819 226.343 598.309 225.619 599.04C224.899 598.305 223.966 597.814 222.952 597.637C218.432 596.823 212.561 602.677 210.621 606.297C210.482 606.54 209.079 610.055 208.629 611.32C208.629 611.32 208.629 611.216 208.629 611.164C208.767 606.948 208.529 602.729 207.919 598.555C207.387 594.828 206.647 591.133 205.702 587.488C204.853 584.024 203.866 581.045 202.966 578.361C202.463 576.906 201.996 575.59 201.528 574.36H201.615C201.615 574.36 202.013 568.801 201.996 568.454C201.771 564.35 198.896 556.556 194.445 555.395C193.699 555.222 192.926 555.208 192.175 555.354C191.424 555.5 190.712 555.802 190.086 556.242C189.46 556.682 188.934 557.248 188.542 557.905C188.15 558.562 187.901 559.295 187.811 560.054C187.309 563.258 189.422 566.67 191.552 568.87C193.682 571.069 199.762 573.615 201.268 574.222C201.719 575.503 202.186 576.889 202.689 578.413C203.52 581.115 204.42 584.18 205.2 587.575C205.408 588.475 205.598 589.463 205.806 590.415C205.131 588.874 204.195 586.795 204.074 586.605C201.978 583.141 195.847 577.478 191.362 578.499C190.621 578.689 189.928 579.032 189.329 579.508C188.73 579.983 188.238 580.579 187.885 581.257C187.532 581.936 187.326 582.681 187.281 583.444C187.235 584.207 187.351 584.972 187.621 585.687C188.66 588.77 192.089 590.883 194.999 591.783C197.908 592.684 204.646 592.216 206.152 592.061C206.551 594.156 206.914 596.338 207.174 598.625C207.688 602.754 207.833 606.922 207.607 611.077C207.607 611.32 207.607 611.579 207.521 611.805C207.33 611.008 205.91 606.609 205.789 606.332C204.057 602.591 198.601 596.356 194.029 596.875C193.272 596.983 192.546 597.249 191.898 597.656C191.251 598.063 190.697 598.602 190.272 599.238C189.847 599.873 189.561 600.592 189.432 601.346C189.304 602.099 189.336 602.872 189.526 603.613C190.219 606.782 193.405 609.207 196.194 610.54C199.346 611.995 206.966 612.03 207.503 612.03C207.16 616.169 206.553 620.282 205.685 624.344C205.044 627.357 204.282 630.371 203.485 633.402C203.208 632.345 201.892 628.206 201.753 627.998C200.021 624.257 194.566 618.022 189.993 618.542C189.236 618.649 188.51 618.915 187.863 619.322C187.216 619.729 186.661 620.268 186.236 620.904C185.811 621.54 185.525 622.258 185.397 623.012C185.268 623.766 185.3 624.538 185.49 625.279C186.183 628.449 189.37 630.873 192.158 632.207C195.207 633.61 202.429 633.696 203.399 633.696C203.035 635.065 202.689 636.45 202.308 637.818C201.095 642.304 199.848 646.79 198.844 651.258C198.463 652.8 198.151 654.341 197.822 655.882C197.354 654.324 196.436 651.501 196.332 651.275C194.6 647.517 189.145 641.282 184.572 641.819C183.815 641.927 183.089 642.193 182.442 642.6C181.795 643.007 181.24 643.546 180.815 644.181C180.39 644.817 180.104 645.535 179.976 646.289C179.847 647.043 179.879 647.816 180.069 648.556C180.762 651.726 183.949 654.133 186.737 655.484C189.526 656.835 195.795 656.939 197.597 656.956C197.077 659.537 196.627 662.152 196.298 664.629C196.176 665.72 195.986 666.846 195.934 667.902C195.882 668.959 195.778 670.032 195.709 671.072C195.622 673.236 195.553 675.263 195.536 677.289C195.536 678.311 195.536 679.264 195.536 680.268C195.293 678.536 194.86 675.99 194.791 675.765C193.682 671.799 189.214 664.819 184.607 664.629C183.843 664.623 183.087 664.777 182.387 665.082C181.686 665.387 181.058 665.836 180.542 666.399C180.026 666.963 179.634 667.628 179.392 668.352C179.149 669.076 179.061 669.844 179.134 670.604C179.342 673.86 182.13 676.718 184.694 678.415C187.257 680.112 194.393 681.411 195.518 681.584C195.518 684.026 195.518 686.382 195.518 688.599C195.709 695.613 196.125 701.432 196.471 705.52C196.817 709.607 197.112 711.928 197.112 711.928C197.211 712.32 197.452 712.661 197.789 712.885C198.126 713.108 198.534 713.199 198.934 713.138C199.333 713.078 199.696 712.871 199.952 712.557C200.207 712.244 200.337 711.847 200.316 711.443C200.316 711.443 199.987 709.191 199.554 705.156C199.121 701.121 198.584 695.371 198.237 688.443C198.151 686.451 198.064 684.321 198.012 682.139C199.155 682.035 206.17 681.325 209.027 679.697C211.885 678.069 214.674 675.488 215.089 672.267C215.212 671.512 215.174 670.74 214.98 670.001C214.785 669.262 214.437 668.573 213.959 667.977C213.48 667.381 212.882 666.892 212.202 666.542C211.523 666.192 210.778 665.988 210.015 665.945C205.408 665.824 200.489 672.509 199.121 676.337C199.034 676.579 198.324 679.627 198.012 681.186C198.012 679.87 198.012 678.571 198.012 677.185C198.012 675.228 198.012 673.132 198.012 671.106C198.012 670.067 198.134 669.011 198.186 667.937C198.237 666.863 198.376 665.824 198.463 664.767C198.636 663.191 198.878 661.598 199.138 659.987C201.199 660.091 207.07 660.264 209.824 659.208C212.578 658.151 216.042 655.9 216.925 652.782C217.163 652.056 217.245 651.287 217.166 650.527C217.086 649.767 216.848 649.032 216.465 648.37C216.083 647.708 215.565 647.134 214.946 646.686C214.327 646.238 213.62 645.925 212.872 645.768C208.352 644.937 202.481 650.808 200.524 654.428L199.762 656.315C200.039 654.757 200.333 653.198 200.679 651.639C201.649 647.188 202.792 642.685 203.918 638.165L204.594 635.342C206.326 635.428 212.699 635.688 215.591 634.58C218.484 633.471 221.809 631.272 222.71 628.154C222.945 627.426 223.024 626.657 222.942 625.897C222.861 625.137 222.62 624.402 222.236 623.741C221.853 623.079 221.334 622.506 220.715 622.058C220.095 621.61 219.388 621.297 218.64 621.14C214.119 620.308 208.248 626.18 206.291 629.799C206.291 629.938 205.841 630.891 205.408 631.982C205.979 629.522 206.516 627.063 206.984 624.604C207.804 620.39 208.337 616.125 208.577 611.839C209.547 611.839 216.769 612.29 219.904 611.077C222.103 610.272 224.067 608.933 225.619 607.18C227.172 608.933 229.136 610.272 231.335 611.077C234.47 612.29 241.726 611.891 242.662 611.839C242.911 616.125 243.443 620.389 244.255 624.604C244.723 627.063 245.26 629.522 245.831 631.982C245.398 630.891 245.017 629.938 244.948 629.799C243.008 626.18 237.137 620.308 232.599 621.14C231.851 621.297 231.144 621.609 230.525 622.058C229.906 622.506 229.388 623.08 229.006 623.742C228.624 624.404 228.385 625.139 228.306 625.899C228.227 626.659 228.309 627.428 228.546 628.154C229.447 631.272 232.79 633.471 235.647 634.58C238.505 635.688 244.948 635.428 246.645 635.342C246.87 636.294 247.095 637.229 247.338 638.165C248.446 642.685 249.589 647.188 250.577 651.639C250.923 653.198 251.2 654.757 251.495 656.315C251.114 655.363 250.784 654.583 250.715 654.428C248.775 650.808 242.904 644.937 238.366 645.768C237.618 645.925 236.912 646.238 236.293 646.686C235.673 647.134 235.156 647.708 234.773 648.37C234.391 649.032 234.152 649.767 234.073 650.527C233.994 651.287 234.076 652.056 234.314 652.782C235.214 655.9 238.557 658.099 241.415 659.208C244.272 660.316 250.074 660.091 252.118 659.987C252.361 661.598 252.62 663.191 252.776 664.767C252.88 665.824 253.036 666.846 253.071 667.937C253.105 669.028 253.175 670.067 253.226 671.106C253.226 673.132 253.226 675.228 253.226 677.185C253.226 678.571 253.226 679.87 253.226 681.186C252.897 679.627 252.187 676.579 252.101 676.337C250.732 672.457 245.814 665.772 241.207 665.945C240.444 665.988 239.698 666.192 239.019 666.542C238.34 666.892 237.741 667.381 237.263 667.977C236.784 668.573 236.437 669.262 236.242 670.001C236.047 670.74 236.01 671.512 236.132 672.267C236.548 675.488 239.596 678.172 242.194 679.697C244.792 681.221 252.066 682.035 253.209 682.139C253.209 684.321 253.088 686.451 252.984 688.443C252.655 695.371 252.118 701.138 251.685 705.156C251.252 709.174 250.906 711.443 250.906 711.443C250.884 711.847 251.014 712.244 251.27 712.557C251.525 712.871 251.888 713.078 252.288 713.138C252.688 713.199 253.096 713.108 253.432 712.885C253.769 712.661 254.011 712.32 254.11 711.928V711.928C254.11 711.928 254.404 709.59 254.768 705.52C255.132 701.45 255.53 695.613 255.703 688.599C255.703 686.382 255.79 684.026 255.79 681.584C256.916 681.411 263.861 680.251 266.632 678.415C269.403 676.579 271.983 673.86 272.174 670.604C272.254 669.827 272.166 669.043 271.917 668.303C271.667 667.564 271.262 666.886 270.729 666.317C270.195 665.747 269.546 665.298 268.824 665.001C268.102 664.704 267.325 664.565 266.545 664.594Z" fill="#7A6EFF"/>
<g filter="url(#filter0_d_150_7651)">
<rect x="210.209" y="240.562" width="7.0081" height="48.8879" rx="3.50405" fill="white"/>
</g>
<g filter="url(#filter1_d_150_7651)">
<rect x="256.255" y="217.309" width="7.0081" height="71.6969" rx="3.50405" fill="white"/>
</g>
<g filter="url(#filter2_d_150_7651)">
<rect x="302.3" y="237.689" width="7.0081" height="51.7611" rx="3.50405" fill="white"/>
</g>
<g filter="url(#filter3_d_150_7651)">
<rect x="325.322" y="211.569" width="7.0081" height="77.4359" rx="3.50405" fill="white"/>
</g>
<g filter="url(#filter4_d_150_7651)">
<rect x="279.277" y="259.093" width="7.0081" height="30.3574" rx="3.50405" fill="white"/>
</g>
<rect x="233.231" y="190.785" width="7.0081" height="98.6649" rx="3.50405" fill="#962DFF"/>
<rect x="256.255" y="217.309" width="7.0081" height="72.1414" rx="3.50405" fill="#4A3AFF"/>
<rect x="279.277" y="259.093" width="7.0081" height="30.3578" rx="3.50405" fill="#962DFF"/>
<rect x="302.3" y="237.689" width="7.0081" height="51.7608" rx="3.50405" fill="#4A3AFF"/>
<rect x="325.324" y="211.132" width="7.0081" height="78.3181" rx="3.50405" fill="#962DFF"/>
<rect x="210.209" y="240.562" width="7.0081" height="48.8879" rx="3.50405" fill="#4A3AFF"/>
<defs>
<filter id="filter0_d_150_7651" x="205.479" y="235.832" width="16.4669" height="58.3468" filterUnits="userSpaceOnUse" color-interpolation-filters="sRGB">
<feFlood flood-opacity="0" result="BackgroundImageFix"/>
<feColorMatrix in="SourceAlpha" type="matrix" values="0 0 0 0 0 0 0 0 0 0 0 0 0 0 0 0 0 0 127 0" result="hardAlpha"/>
<feOffset/>
<feGaussianBlur stdDeviation="2.36478"/>
<feColorMatrix type="matrix" values="0 0 0 0 0.290196 0 0 0 0 0.227451 0 0 0 0 1 0 0 0 0.25 0"/>
<feBlend mode="normal" in2="BackgroundImageFix" result="effect1_dropShadow_150_7651"/>
<feBlend mode="normal" in="SourceGraphic" in2="effect1_dropShadow_150_7651" result="shape"/>
</filter>
<filter id="filter1_d_150_7651" x="251.525" y="212.579" width="16.4669" height="81.1559" filterUnits="userSpaceOnUse" color-interpolation-filters="sRGB">
<feFlood flood-opacity="0" result="BackgroundImageFix"/>
<feColorMatrix in="SourceAlpha" type="matrix" values="0 0 0 0 0 0 0 0 0 0 0 0 0 0 0 0 0 0 127 0" result="hardAlpha"/>
<feOffset/>
<feGaussianBlur stdDeviation="2.36478"/>
<feColorMatrix type="matrix" values="0 0 0 0 0.290196 0 0 0 0 0.227451 0 0 0 0 1 0 0 0 0.25 0"/>
<feBlend mode="normal" in2="BackgroundImageFix" result="effect1_dropShadow_150_7651"/>
<feBlend mode="normal" in="SourceGraphic" in2="effect1_dropShadow_150_7651" result="shape"/>
</filter>
<filter id="filter2_d_150_7651" x="297.57" y="232.959" width="16.4669" height="61.2203" filterUnits="userSpaceOnUse" color-interpolation-filters="sRGB">
<feFlood flood-opacity="0" result="BackgroundImageFix"/>
<feColorMatrix in="SourceAlpha" type="matrix" values="0 0 0 0 0 0 0 0 0 0 0 0 0 0 0 0 0 0 127 0" result="hardAlpha"/>
<feOffset/>
<feGaussianBlur stdDeviation="2.36478"/>
<feColorMatrix type="matrix" values="0 0 0 0 0.290196 0 0 0 0 0.227451 0 0 0 0 1 0 0 0 0.25 0"/>
<feBlend mode="normal" in2="BackgroundImageFix" result="effect1_dropShadow_150_7651"/>
<feBlend mode="normal" in="SourceGraphic" in2="effect1_dropShadow_150_7651" result="shape"/>
</filter>
<filter id="filter3_d_150_7651" x="320.593" y="206.84" width="16.4669" height="86.8951" filterUnits="userSpaceOnUse" color-interpolation-filters="sRGB">
<feFlood flood-opacity="0" result="BackgroundImageFix"/>
<feColorMatrix in="SourceAlpha" type="matrix" values="0 0 0 0 0 0 0 0 0 0 0 0 0 0 0 0 0 0 127 0" result="hardAlpha"/>
<feOffset/>
<feGaussianBlur stdDeviation="2.36478"/>
<feColorMatrix type="matrix" values="0 0 0 0 0.588235 0 0 0 0 0.176471 0 0 0 0 1 0 0 0 0.25 0"/>
<feBlend mode="normal" in2="BackgroundImageFix" result="effect1_dropShadow_150_7651"/>
<feBlend mode="normal" in="SourceGraphic" in2="effect1_dropShadow_150_7651" result="shape"/>
</filter>
<filter id="filter4_d_150_7651" x="272.476" y="252.291" width="20.6104" height="43.96" filterUnits="userSpaceOnUse" color-interpolation-filters="sRGB">
<feFlood flood-opacity="0" result="BackgroundImageFix"/>
<feColorMatrix in="SourceAlpha" type="matrix" values="0 0 0 0 0 0 0 0 0 0 0 0 0 0 0 0 0 0 127 0" result="hardAlpha"/>
<feOffset/>
<feGaussianBlur stdDeviation="3.40064"/>
<feColorMatrix type="matrix" values="0 0 0 0 0.588235 0 0 0 0 0.176471 0 0 0 0 1 0 0 0 0.25 0"/>
<feBlend mode="normal" in2="BackgroundImageFix" result="effect1_dropShadow_150_7651"/>
<feBlend mode="normal" in="SourceGraphic" in2="effect1_dropShadow_150_7651" result="shape"/>
</filter>
</defs>
</svg>