<svg width="22" height="22" viewBox="0 0 22 22" fill="none" xmlns="http://www.w3.org/2000/svg">
<path d="M20.1666 11.0002V19.2502C20.1666 19.4933 20.07 19.7264 19.8981 19.8983C19.7262 20.0703 19.493 20.1668 19.2499 20.1668H2.74992C2.5068 20.1668 2.27365 20.0703 2.10174 19.8983C1.92983 19.7264 1.83325 19.4933 1.83325 19.2502V2.75016C1.83325 2.50705 1.92983 2.27389 2.10174 2.10198C2.27365 1.93007 2.5068 1.8335 2.74992 1.8335H10.9999C11.243 1.8335 11.4762 1.93007 11.6481 2.10198C11.82 2.27389 11.9166 2.50705 11.9166 2.75016C11.9166 2.99328 11.82 3.22644 11.6481 3.39834C11.4762 3.57025 11.243 3.66683 10.9999 3.66683H3.66659V18.3335H18.3333V11.0002C18.3333 10.757 18.4298 10.5239 18.6017 10.352C18.7736 10.1801 19.0068 10.0835 19.2499 10.0835C19.493 10.0835 19.7262 10.1801 19.8981 10.352C20.07 10.5239 20.1666 10.757 20.1666 11.0002ZM19.6001 1.90408C19.4892 1.85761 19.3702 1.83362 19.2499 1.8335H14.6666C14.4235 1.8335 14.1903 1.93007 14.0184 2.10198C13.8465 2.27389 13.7499 2.50705 13.7499 2.75016C13.7499 2.99328 13.8465 3.22644 14.0184 3.39834C14.1903 3.57025 14.4235 3.66683 14.6666 3.66683H17.0371L10.3518 10.3521C10.2643 10.4366 10.1944 10.5378 10.1464 10.6496C10.0984 10.7615 10.0731 10.8817 10.072 11.0035C10.071 11.1252 10.0942 11.2459 10.1402 11.3585C10.1863 11.4712 10.2544 11.5735 10.3405 11.6596C10.4265 11.7457 10.5289 11.8137 10.6415 11.8598C10.7542 11.9059 10.8749 11.9291 10.9966 11.9281C11.1183 11.927 11.2386 11.9017 11.3505 11.8537C11.4623 11.8056 11.5634 11.7358 11.648 11.6482L18.3333 4.963V7.3335C18.3333 7.57661 18.4298 7.80977 18.6017 7.98168C18.7736 8.15359 19.0068 8.25016 19.2499 8.25016C19.493 8.25016 19.7262 8.15359 19.8981 7.98168C20.07 7.80977 20.1666 7.57661 20.1666 7.3335V2.75016C20.166 2.62997 20.142 2.51103 20.096 2.4C20.003 2.17549 19.8246 1.99711 19.6001 1.90408Z" fill="#A897FE"/>
</svg>
